<svg xmlns:xlink="http://www.w3.org/1999/xlink" xmlns="http://www.w3.org/2000/svg" width="340" height="84"><defs><style type="text/css" xml:space="preserve" xmlns:xml="http://www.w3.org/XML/1998/namespace">
    @namespace "http://www.w3.org/2000/svg";
    .line                 {fill: none; stroke: #262626;}
    .bold-line            {stroke: #0A0A0A; shape-rendering: crispEdges; stroke-width: 2; }
    .thin-line            {stroke: #0F0F0F; shape-rendering: crispEdges}
    .filled               {fill: #262626; stroke: none;}
    text.terminal         {font-family: Verdana, Sans-serif;
                            font-size: 12px;
                            fill: #0A0A0A;
                            font-weight: bold;
                          }
    text.nonterminal      {font-family: Verdana, Sans-serif;
                            font-size: 12px;
                            fill: #0D0D0D;
                          }
    text.regexp           {font-family: Verdana, Sans-serif;
                            font-size: 12px;
                            fill: #0F0F0F;
                          }
    rect, circle, polygon {fill: #262626; stroke: #262626;}
    rect.terminal         {fill: #FFFFFF; stroke: #262626;}
    rect.nonterminal      {fill: #FFFFFF; stroke: #262626;}
    rect.text             {fill: none; stroke: none;}    
    polygon.regexp        {fill: #FFFFFF; stroke: #262626;}
  </style></defs><polygon points="9 49 1 45 1 53"/><polygon points="17 49 9 45 9 53"/><line x1="17" y1="49" x2="19" y2="49" class="line"/><polygon points="71 51 78 35 136 35 143 51 136 67 78 67"/><polygon points="69 49 76 33 134 33 141 49 134 65 76 65" class="regexp"/><text class="regexp" x="84" y="53">[^\r\n]</text><line x1="59" y1="49" x2="69" y2="49" class="line"/><line x1="141" y1="49" x2="151" y2="49" class="line"/><path d="M39 49 L59 49 M58 49 Q49 49 49 39 L49 27 Q49 17 59 17" class="line"/><path d="M151 49 L171 49 M151 49 Q161 49 161 39 L161 27 Q161 17 151 17" class="line"/><line x1="59" y1="17" x2="69" y2="17" class="line"/><line x1="69" y1="17" x2="151" y2="17" class="line"/><a xlink:href="#Newline" xlink:title="Newline" shape="rect"><rect x="203" y="35" width="70" height="32"/><rect x="201" y="33" width="70" height="32" class="nonterminal"/><text class="nonterminal" x="211" y="53">Newline</text></a><line x1="191" y1="49" x2="201" y2="49" class="line"/><line x1="271" y1="49" x2="281" y2="49" class="line"/><line x1="171" y1="49" x2="191" y2="49" class="line"/><line x1="281" y1="49" x2="301" y2="49" class="line"/><path d="M171 49 Q181 49 181 59" class="line"/><path d="M291 59 Q291 49 301 49" class="line"/><line x1="181" y1="59" x2="181" y2="73" class="line"/><line x1="291" y1="73" x2="291" y2="59" class="line"/><path d="M181 73 Q181 83 191 83" class="line"/><path d="M281 83 Q291 83 291 73" class="line"/><line x1="191" y1="83" x2="201" y2="83" class="line"/><line x1="201" y1="83" x2="281" y2="83" class="line"/><path d="M19 49 L39 49 M38 49 Q29 49 29 39 L29 11 Q29 1 39 1" class="line"/><path d="M301 49 L321 49 M301 49 Q311 49 311 39 L311 11 Q311 1 301 1" class="line"/><line x1="39" y1="1" x2="49" y2="1" class="line"/><line x1="49" y1="1" x2="301" y2="1" class="line"/><line x1="324" y1="49" x2="321" y2="49" class="line"/><polygon points="331 49 339 45 339 53"/><polygon points="331 49 323 45 323 53"/></svg>