<?xml version="1.0" encoding="UTF-8" standalone="no"?>
<svg
   xmlns:dc="http://purl.org/dc/elements/1.1/"
   xmlns:cc="http://creativecommons.org/ns#"
   xmlns:rdf="http://www.w3.org/1999/02/22-rdf-syntax-ns#"
   xmlns:svg="http://www.w3.org/2000/svg"
   xmlns="http://www.w3.org/2000/svg"
   xmlns:sodipodi="http://sodipodi.sourceforge.net/DTD/sodipodi-0.dtd"
   xmlns:inkscape="http://www.inkscape.org/namespaces/inkscape"
   width="610"
   height="68"
   id="svg12757"
   version="1.1"
   inkscape:version="0.48.2 r9819"
   sodipodi:docname="vvakame-InlineElement.svg">
  <metadata
     id="metadata12867">
    <rdf:RDF>
      <cc:Work
         rdf:about="">
        <dc:format>image/svg+xml</dc:format>
        <dc:type
           rdf:resource="http://purl.org/dc/dcmitype/StillImage" />
      </cc:Work>
    </rdf:RDF>
  </metadata>
  <sodipodi:namedview
     pagecolor="#ffffff"
     bordercolor="#666666"
     borderopacity="1"
     objecttolerance="10"
     gridtolerance="10"
     guidetolerance="10"
     inkscape:pageopacity="0"
     inkscape:pageshadow="2"
     inkscape:window-width="640"
     inkscape:window-height="480"
     id="namedview12865"
     showgrid="false"
     inkscape:zoom="0.87885424"
     inkscape:cx="305"
     inkscape:cy="34"
     inkscape:window-x="0"
     inkscape:window-y="0"
     inkscape:window-maximized="0"
     inkscape:current-layer="svg12757" />
  <defs
     id="defs12759">
    <style
       type="text/css"
       xml:space="preserve"
       id="style12761">
    @namespace &quot;http://www.w3.org/2000/svg&quot;;
    .line                 {fill: none; stroke: #262626;}
    .bold-line            {stroke: #0A0A0A; shape-rendering: crispEdges; stroke-width: 2; }
    .thin-line            {stroke: #0F0F0F; shape-rendering: crispEdges}
    .filled               {fill: #262626; stroke: none;}
    text.terminal         {font-family: Verdana, Sans-serif;
                            font-size: 12px;
                            fill: #0A0A0A;
                            font-weight: bold;
                          }
    text.nonterminal      {font-family: Verdana, Sans-serif;
                            font-size: 12px;
                            fill: #0D0D0D;
                          }
    text.regexp           {font-family: Verdana, Sans-serif;
                            font-size: 12px;
                            fill: #0F0F0F;
                          }
    rect, circle, polygon {fill: #262626; stroke: #262626;}
    rect.terminal         {fill: #FFFFFF; stroke: #262626;}
    rect.nonterminal      {fill: #FFFFFF; stroke: #262626;}
    rect.text             {fill: none; stroke: none;}    
    polygon.regexp        {fill: #FFFFFF; stroke: #262626;}
  </style>  </defs>
  <polygon
     points="9 33 1 29 1 37"
     id="polygon12763" />
  <polygon
     points="17 33 9 29 9 37"
     id="polygon12765" />
  <line
     x1="17"
     y1="33"
     x2="19"
     y2="33"
     class="line"
     id="line12767" />
  <rect
     x="31"
     y="19"
     width="42"
     height="32"
     rx="10"
     id="rect12769" />
  <rect
     x="29"
     y="17"
     width="42"
     height="32"
     class="terminal"
     rx="10"
     id="rect12771" />
  <text
     class="terminal"
     x="39"
     y="37"
     id="text12773">@&lt;</text>
  <line
     x1="19"
     y1="33"
     x2="29"
     y2="33"
     class="line"
     id="line12775" />
  <line
     x1="71"
     y1="33"
     x2="81"
     y2="33"
     class="line"
     id="line12777" />
  <polygon
     points="113 35 120 19 186 19 193 35 186 51 120 51"
     id="polygon12779" />
  <polygon
     points="111 33 118 17 184 17 191 33 184 49 118 49"
     class="regexp"
     id="polygon12781" />
  <text
     class="regexp"
     x="126"
     y="37"
     id="text12783">[^\r\n&gt;]</text>
  <line
     x1="101"
     y1="33"
     x2="111"
     y2="33"
     class="line"
     id="line12785" />
  <line
     x1="191"
     y1="33"
     x2="201"
     y2="33"
     class="line"
     id="line12787" />
  <path
     d="M81 33 L101 33 M100 33 Q91 33 91 23 L91 11 Q91 1 101 1"
     class="line"
     id="path12789" />
  <path
     d="M201 33 L221 33 M201 33 Q211 33 211 23 L211 11 Q211 1 201 1"
     class="line"
     id="path12791" />
  <line
     x1="101"
     y1="1"
     x2="111"
     y2="1"
     class="line"
     id="line12793" />
  <line
     x1="111"
     y1="1"
     x2="201"
     y2="1"
     class="line"
     id="line12795" />
  <rect
     x="233"
     y="19"
     width="30"
     height="32"
     rx="10"
     id="rect12797" />
  <rect
     x="231"
     y="17"
     width="30"
     height="32"
     class="terminal"
     rx="10"
     id="rect12799" />
  <text
     class="terminal"
     x="241"
     y="37"
     id="text12801">&gt;</text>
  <line
     x1="221"
     y1="33"
     x2="231"
     y2="33"
     class="line"
     id="line12803" />
  <line
     x1="261"
     y1="33"
     x2="271"
     y2="33"
     class="line"
     id="line12805" />
  <rect
     x="283"
     y="19"
     width="28"
     height="32"
     rx="10"
     id="rect12807" />
  <rect
     x="281"
     y="17"
     width="28"
     height="32"
     class="terminal"
     rx="10"
     id="rect12809" />
  <text
     class="terminal"
     x="291"
     y="37"
     id="text12811">{</text>
  <line
     x1="271"
     y1="33"
     x2="281"
     y2="33"
     class="line"
     id="line12813" />
  <line
     x1="309"
     y1="33"
     x2="319"
     y2="33"
     class="line"
     id="line12815" />
  <rect
     style="fill:#262626;stroke:#262626"
     id="rect12819"
     height="32"
     width="164"
     y="19"
     x="351" />
  <rect
     style="fill:#ffffff;stroke:#262626"
     id="rect12821"
     class="nonterminal"
     height="32"
     width="164"
     y="17"
     x="349" />
  <text
     style="font-size:12px;font-weight:bold;fill:#0d0d0d;font-family:'Verdana, Sans-serif'"
     id="text12823"
     y="37"
     x="353"
     class="nonterminal">InlineElementContents</text>
  <line
     x1="339"
     y1="33"
     x2="349"
     y2="33"
     class="line"
     id="line12825" />
  <line
     x1="513"
     y1="33"
     x2="523"
     y2="33"
     class="line"
     id="line12827" />
  <line
     x1="319"
     y1="33"
     x2="339"
     y2="33"
     class="line"
     id="line12829" />
  <line
     x1="523"
     y1="33"
     x2="543"
     y2="33"
     class="line"
     id="line12831" />
  <path
     d="M319 33 Q329 33 329 43"
     class="line"
     id="path12833" />
  <path
     d="M533 43 Q533 33 543 33"
     class="line"
     id="path12835" />
  <line
     x1="329"
     y1="43"
     x2="329"
     y2="57"
     class="line"
     id="line12837" />
  <line
     x1="533"
     y1="57"
     x2="533"
     y2="43"
     class="line"
     id="line12839" />
  <path
     d="M329 57 Q329 67 339 67"
     class="line"
     id="path12841" />
  <path
     d="M523 67 Q533 67 533 57"
     class="line"
     id="path12843" />
  <line
     x1="339"
     y1="67"
     x2="349"
     y2="67"
     class="line"
     id="line12845" />
  <line
     x1="349"
     y1="67"
     x2="523"
     y2="67"
     class="line"
     id="line12847" />
  <rect
     x="555"
     y="19"
     width="28"
     height="32"
     rx="10"
     id="rect12849" />
  <rect
     x="553"
     y="17"
     width="28"
     height="32"
     class="terminal"
     rx="10"
     id="rect12851" />
  <text
     class="terminal"
     x="563"
     y="37"
     id="text12853">}</text>
  <line
     x1="543"
     y1="33"
     x2="553"
     y2="33"
     class="line"
     id="line12855" />
  <line
     x1="581"
     y1="33"
     x2="591"
     y2="33"
     class="line"
     id="line12857" />
  <line
     x1="594"
     y1="33"
     x2="591"
     y2="33"
     class="line"
     id="line12859" />
  <polygon
     points="601 33 609 29 609 37"
     id="polygon12861" />
  <polygon
     points="601 33 593 29 593 37"
     id="polygon12863" />
</svg>
