<?xml version="1.0" encoding="UTF-8" standalone="no"?>
<svg
   xmlns:dc="http://purl.org/dc/elements/1.1/"
   xmlns:cc="http://creativecommons.org/ns#"
   xmlns:rdf="http://www.w3.org/1999/02/22-rdf-syntax-ns#"
   xmlns:svg="http://www.w3.org/2000/svg"
   xmlns="http://www.w3.org/2000/svg"
   xmlns:sodipodi="http://sodipodi.sourceforge.net/DTD/sodipodi-0.dtd"
   xmlns:inkscape="http://www.inkscape.org/namespaces/inkscape"
   width="320"
   height="96"
   id="svg10069"
   version="1.1"
   inkscape:version="0.48.2 r9819"
   sodipodi:docname="vvakame-DlistElementContent.svg">
  <metadata
     id="metadata10147">
    <rdf:RDF>
      <cc:Work
         rdf:about="">
        <dc:format>image/svg+xml</dc:format>
        <dc:type
           rdf:resource="http://purl.org/dc/dcmitype/StillImage" />
      </cc:Work>
    </rdf:RDF>
  </metadata>
  <sodipodi:namedview
     pagecolor="#ffffff"
     bordercolor="#666666"
     borderopacity="1"
     objecttolerance="10"
     gridtolerance="10"
     guidetolerance="10"
     inkscape:pageopacity="0"
     inkscape:pageshadow="2"
     inkscape:window-width="640"
     inkscape:window-height="480"
     id="namedview10145"
     showgrid="false"
     inkscape:zoom="1.1"
     inkscape:cx="160"
     inkscape:cy="48"
     inkscape:window-x="0"
     inkscape:window-y="0"
     inkscape:window-maximized="0"
     inkscape:current-layer="svg10069" />
  <defs
     id="defs10071">
    <style
       type="text/css"
       xml:space="preserve"
       id="style10073">
    @namespace &quot;http://www.w3.org/2000/svg&quot;;
    .line                 {fill: none; stroke: #262626;}
    .bold-line            {stroke: #0A0A0A; shape-rendering: crispEdges; stroke-width: 2; }
    .thin-line            {stroke: #0F0F0F; shape-rendering: crispEdges}
    .filled               {fill: #262626; stroke: none;}
    text.terminal         {font-family: Verdana, Sans-serif;
                            font-size: 12px;
                            fill: #0A0A0A;
                            font-weight: bold;
                          }
    text.nonterminal      {font-family: Verdana, Sans-serif;
                            font-size: 12px;
                            fill: #0D0D0D;
                          }
    text.regexp           {font-family: Verdana, Sans-serif;
                            font-size: 12px;
                            fill: #0F0F0F;
                          }
    rect, circle, polygon {fill: #262626; stroke: #262626;}
    rect.terminal         {fill: #FFFFFF; stroke: #262626;}
    rect.nonterminal      {fill: #FFFFFF; stroke: #262626;}
    rect.text             {fill: none; stroke: none;}    
    polygon.regexp        {fill: #FFFFFF; stroke: #262626;}
  </style>  </defs>
  <polygon
     points="9 33 1 29 1 37"
     id="polygon10075" />
  <polygon
     points="17 33 9 29 9 37"
     id="polygon10077" />
  <line
     x1="17"
     y1="33"
     x2="19"
     y2="33"
     class="line"
     id="line10079" />
  <rect
     x="71"
     y="19"
     width="24"
     height="32"
     rx="10"
     id="rect10081" />
  <rect
     x="69"
     y="17"
     width="24"
     height="32"
     class="terminal"
     rx="10"
     id="rect10083" />
  <text
     class="terminal"
     x="79"
     y="37"
     id="text10085" />
  <line
     x1="59"
     y1="33"
     x2="69"
     y2="33"
     class="line"
     id="line10087" />
  <line
     x1="93"
     y1="33"
     x2="103"
     y2="33"
     class="line"
     id="line10089" />
  <line
     x1="103"
     y1="33"
     x2="111"
     y2="33"
     class="line"
     id="line10091" />
  <line
     x1="39"
     y1="33"
     x2="59"
     y2="33"
     class="line"
     id="line10093" />
  <line
     x1="111"
     y1="33"
     x2="131"
     y2="33"
     class="line"
     id="line10095" />
  <path
     d="M39 33 Q49 33 49 43"
     class="line"
     id="path10097" />
  <path
     d="M121 43 Q121 33 131 33"
     class="line"
     id="path10099" />
  <line
     x1="49"
     y1="43"
     x2="49"
     y2="67"
     class="line"
     id="line10101" />
  <line
     x1="121"
     y1="67"
     x2="121"
     y2="43"
     class="line"
     id="line10103" />
  <path
     d="M49 67 Q49 77 59 77"
     class="line"
     id="path10105" />
  <path
     d="M111 77 Q121 77 121 67"
     class="line"
     id="path10107" />
  <rect
     x="71"
     y="63"
     width="32"
     height="32"
     rx="10"
     id="rect10109" />
  <rect
     x="69"
     y="61"
     width="32"
     height="32"
     class="terminal"
     rx="10"
     id="rect10111" />
  <text
     class="terminal"
     x="79"
     y="81"
     id="text10113">\t</text>
  <line
     x1="59"
     y1="77"
     x2="69"
     y2="77"
     class="line"
     id="line10115" />
  <line
     x1="101"
     y1="77"
     x2="111"
     y2="77"
     class="line"
     id="line10117" />
  <path
     d="M19 33 L39 33 M38 33 Q29 33 29 23 L29 11 Q29 1 39 1"
     class="line"
     id="path10119" />
  <path
     d="M131 33 L151 33 M131 33 Q141 33 141 23 L141 11 Q141 1 131 1"
     class="line"
     id="path10121" />
  <line
     x1="39"
     y1="1"
     x2="49"
     y2="1"
     class="line"
     id="line10123" />
  <line
     x1="49"
     y1="1"
     x2="131"
     y2="1"
     class="line"
     id="line10125" />
  <rect
     style="fill:#262626;stroke:#262626"
     id="rect10129"
     height="32"
     width="130"
     y="19"
     x="163" />
  <rect
     style="fill:#ffffff;stroke:#262626"
     id="rect10131"
     class="nonterminal"
     height="32"
     width="130"
     y="17"
     x="161" />
  <text
     style="font-size:12px;font-weight:bold;fill:#0d0d0d;font-family:'Verdana, Sans-serif'"
     id="text10133"
     y="37"
     x="167"
     class="nonterminal">SinglelineContent</text>
  <line
     x1="151"
     y1="33"
     x2="161"
     y2="33"
     class="line"
     id="line10135" />
  <line
     x1="291"
     y1="33"
     x2="301"
     y2="33"
     class="line"
     id="line10137" />
  <line
     x1="304"
     y1="33"
     x2="301"
     y2="33"
     class="line"
     id="line10139" />
  <polygon
     points="311 33 319 29 319 37"
     id="polygon10141" />
  <polygon
     points="311 33 303 29 303 37"
     id="polygon10143" />
</svg>
