<?xml version="1.0" encoding="UTF-8" standalone="no"?>
<svg
   xmlns:dc="http://purl.org/dc/elements/1.1/"
   xmlns:cc="http://creativecommons.org/ns#"
   xmlns:rdf="http://www.w3.org/1999/02/22-rdf-syntax-ns#"
   xmlns:svg="http://www.w3.org/2000/svg"
   xmlns="http://www.w3.org/2000/svg"
   xmlns:sodipodi="http://sodipodi.sourceforge.net/DTD/sodipodi-0.dtd"
   xmlns:inkscape="http://www.inkscape.org/namespaces/inkscape"
   width="266"
   height="256"
   id="svg4425"
   version="1.1"
   inkscape:version="0.48.2 r9819"
   sodipodi:docname="vvakame-BlockElementContent.svg">
  <metadata
     id="metadata4591">
    <rdf:RDF>
      <cc:Work
         rdf:about="">
        <dc:format>image/svg+xml</dc:format>
        <dc:type
           rdf:resource="http://purl.org/dc/dcmitype/StillImage" />
      </cc:Work>
    </rdf:RDF>
  </metadata>
  <sodipodi:namedview
     pagecolor="#ffffff"
     bordercolor="#666666"
     borderopacity="1"
     objecttolerance="10"
     gridtolerance="10"
     guidetolerance="10"
     inkscape:pageopacity="0"
     inkscape:pageshadow="2"
     inkscape:window-width="1566"
     inkscape:window-height="889"
     id="namedview4589"
     showgrid="false"
     inkscape:zoom="1.73"
     inkscape:cx="133"
     inkscape:cy="128"
     inkscape:window-x="0"
     inkscape:window-y="0"
     inkscape:window-maximized="0"
     inkscape:current-layer="svg4425" />
  <defs
     id="defs4427">
    <style
       type="text/css"
       xml:space="preserve"
       id="style4429">
    @namespace &quot;http://www.w3.org/2000/svg&quot;;
    .line                 {fill: none; stroke: #262626;}
    .bold-line            {stroke: #0A0A0A; shape-rendering: crispEdges; stroke-width: 2; }
    .thin-line            {stroke: #0F0F0F; shape-rendering: crispEdges}
    .filled               {fill: #262626; stroke: none;}
    text.terminal         {font-family: Verdana, Sans-serif;
                            font-size: 12px;
                            fill: #0A0A0A;
                            font-weight: bold;
                          }
    text.nonterminal      {font-family: Verdana, Sans-serif;
                            font-size: 12px;
                            fill: #0D0D0D;
                          }
    text.regexp           {font-family: Verdana, Sans-serif;
                            font-size: 12px;
                            fill: #0F0F0F;
                          }
    rect, circle, polygon {fill: #262626; stroke: #262626;}
    rect.terminal         {fill: #FFFFFF; stroke: #262626;}
    rect.nonterminal      {fill: #FFFFFF; stroke: #262626;}
    rect.text             {fill: none; stroke: none;}    
    polygon.regexp        {fill: #FFFFFF; stroke: #262626;}
  </style>  </defs>
  <polygon
     points="9 17 1 13 1 21"
     id="polygon4431" />
  <polygon
     points="17 17 9 13 9 21"
     id="polygon4433" />
  <line
     x1="17"
     y1="17"
     x2="19"
     y2="17"
     class="line"
     id="line4435" />
  <rect
     style="fill:#262626;stroke:#262626"
     id="rect4439"
     height="32"
     width="140"
     y="3"
     x="51" />
  <rect
     style="fill:#ffffff;stroke:#262626"
     id="rect4441"
     class="nonterminal"
     height="32"
     width="140"
     y="1"
     x="49" />
  <text
     style="font-size:12px;font-weight:bold;fill:#0d0d0d;font-family:'Verdana, Sans-serif'"
     id="text4443"
     y="21"
     x="55"
     class="nonterminal">SinglelineComment</text>
  <line
     x1="39"
     y1="17"
     x2="49"
     y2="17"
     class="line"
     id="line4445" />
  <line
     x1="189"
     y1="17"
     x2="199"
     y2="17"
     class="line"
     id="line4447" />
  <line
     x1="199"
     y1="17"
     x2="227"
     y2="17"
     class="line"
     id="line4449" />
  <line
     x1="19"
     y1="17"
     x2="39"
     y2="17"
     class="line"
     id="line4451" />
  <line
     x1="227"
     y1="17"
     x2="247"
     y2="17"
     class="line"
     id="line4453" />
  <path
     d="M19 17 Q29 17 29 27"
     class="line"
     id="path4455" />
  <path
     d="M237 27 Q237 17 247 17"
     class="line"
     id="path4457" />
  <line
     x1="29"
     y1="27"
     x2="29"
     y2="51"
     class="line"
     id="line4459" />
  <line
     x1="237"
     y1="51"
     x2="237"
     y2="27"
     class="line"
     id="line4461" />
  <path
     d="M29 51 Q29 61 39 61"
     class="line"
     id="path4463" />
  <path
     d="M227 61 Q237 61 237 51"
     class="line"
     id="path4465" />
  <rect
     style="fill:#262626;stroke:#262626"
     id="rect4469"
     height="32"
     width="102"
     y="47"
     x="51" />
  <rect
     style="fill:#ffffff;stroke:#262626"
     id="rect4471"
     class="nonterminal"
     height="32"
     width="102"
     y="45"
     x="49" />
  <text
     style="font-size:12px;font-weight:bold;fill:#0d0d0d;font-family:'Verdana, Sans-serif'"
     id="text4473"
     y="65"
     x="55"
     class="nonterminal">BlockElement</text>
  <line
     x1="39"
     y1="61"
     x2="49"
     y2="61"
     class="line"
     id="line4475" />
  <line
     x1="151"
     y1="61"
     x2="161"
     y2="61"
     class="line"
     id="line4477" />
  <line
     x1="161"
     y1="61"
     x2="227"
     y2="61"
     class="line"
     id="line4479" />
  <line
     x1="29"
     y1="51"
     x2="29"
     y2="71"
     class="line"
     id="line4481" />
  <line
     x1="237"
     y1="71"
     x2="237"
     y2="51"
     class="line"
     id="line4483" />
  <line
     x1="29"
     y1="71"
     x2="29"
     y2="95"
     class="line"
     id="line4485" />
  <line
     x1="237"
     y1="95"
     x2="237"
     y2="71"
     class="line"
     id="line4487" />
  <path
     d="M29 95 Q29 105 39 105"
     class="line"
     id="path4489" />
  <path
     d="M227 105 Q237 105 237 95"
     class="line"
     id="path4491" />
  <rect
     style="fill:#262626;stroke:#262626"
     id="rect4495"
     height="32"
     width="46"
     y="91"
     x="51" />
  <rect
     style="fill:#ffffff;stroke:#262626"
     id="rect4497"
     class="nonterminal"
     height="32"
     width="46"
     y="89"
     x="49" />
  <text
     style="font-size:12px;font-weight:bold;fill:#0d0d0d;font-family:'Verdana, Sans-serif'"
     id="text4499"
     y="109"
     x="55"
     class="nonterminal">Ulist</text>
  <line
     x1="39"
     y1="105"
     x2="49"
     y2="105"
     class="line"
     id="line4501" />
  <line
     x1="95"
     y1="105"
     x2="105"
     y2="105"
     class="line"
     id="line4503" />
  <line
     x1="105"
     y1="105"
     x2="227"
     y2="105"
     class="line"
     id="line4505" />
  <line
     x1="29"
     y1="95"
     x2="29"
     y2="115"
     class="line"
     id="line4507" />
  <line
     x1="237"
     y1="115"
     x2="237"
     y2="95"
     class="line"
     id="line4509" />
  <line
     x1="29"
     y1="115"
     x2="29"
     y2="139"
     class="line"
     id="line4511" />
  <line
     x1="237"
     y1="139"
     x2="237"
     y2="115"
     class="line"
     id="line4513" />
  <path
     d="M29 139 Q29 149 39 149"
     class="line"
     id="path4515" />
  <path
     d="M227 149 Q237 149 237 139"
     class="line"
     id="path4517" />
  <rect
     style="fill:#262626;stroke:#262626"
     id="rect4521"
     height="32"
     width="48"
     y="135"
     x="51" />
  <rect
     style="fill:#ffffff;stroke:#262626"
     id="rect4523"
     class="nonterminal"
     height="32"
     width="48"
     y="133"
     x="49" />
  <text
     style="font-size:12px;font-weight:bold;fill:#0d0d0d;font-family:'Verdana, Sans-serif'"
     id="text4525"
     y="153"
     x="55"
     class="nonterminal">Olist</text>
  <line
     x1="39"
     y1="149"
     x2="49"
     y2="149"
     class="line"
     id="line4527" />
  <line
     x1="97"
     y1="149"
     x2="107"
     y2="149"
     class="line"
     id="line4529" />
  <line
     x1="107"
     y1="149"
     x2="227"
     y2="149"
     class="line"
     id="line4531" />
  <line
     x1="29"
     y1="139"
     x2="29"
     y2="159"
     class="line"
     id="line4533" />
  <line
     x1="237"
     y1="159"
     x2="237"
     y2="139"
     class="line"
     id="line4535" />
  <line
     x1="29"
     y1="159"
     x2="29"
     y2="183"
     class="line"
     id="line4537" />
  <line
     x1="237"
     y1="183"
     x2="237"
     y2="159"
     class="line"
     id="line4539" />
  <path
     d="M29 183 Q29 193 39 193"
     class="line"
     id="path4541" />
  <path
     d="M227 193 Q237 193 237 183"
     class="line"
     id="path4543" />
  <rect
     style="fill:#262626;stroke:#262626"
     id="rect4547"
     height="32"
     width="46"
     y="179"
     x="51" />
  <rect
     style="fill:#ffffff;stroke:#262626"
     id="rect4549"
     class="nonterminal"
     height="32"
     width="46"
     y="177"
     x="49" />
  <text
     style="font-size:12px;font-weight:bold;fill:#0d0d0d;font-family:'Verdana, Sans-serif'"
     id="text4551"
     y="197"
     x="55"
     class="nonterminal">Dlist</text>
  <line
     x1="39"
     y1="193"
     x2="49"
     y2="193"
     class="line"
     id="line4553" />
  <line
     x1="95"
     y1="193"
     x2="105"
     y2="193"
     class="line"
     id="line4555" />
  <line
     x1="105"
     y1="193"
     x2="227"
     y2="193"
     class="line"
     id="line4557" />
  <line
     x1="29"
     y1="183"
     x2="29"
     y2="203"
     class="line"
     id="line4559" />
  <line
     x1="237"
     y1="203"
     x2="237"
     y2="183"
     class="line"
     id="line4561" />
  <line
     x1="29"
     y1="203"
     x2="29"
     y2="227"
     class="line"
     id="line4563" />
  <line
     x1="237"
     y1="227"
     x2="237"
     y2="203"
     class="line"
     id="line4565" />
  <path
     d="M29 227 Q29 237 39 237"
     class="line"
     id="path4567" />
  <path
     d="M227 237 Q237 237 237 227"
     class="line"
     id="path4569" />
  <rect
     style="fill:#262626;stroke:#262626"
     id="rect4573"
     height="32"
     width="168"
     y="223"
     x="51" />
  <rect
     style="fill:#ffffff;stroke:#262626"
     id="rect4575"
     class="nonterminal"
     height="32"
     width="168"
     y="221"
     x="49" />
  <text
     style="font-size:12px;font-weight:bold;fill:#0d0d0d;font-family:'Verdana, Sans-serif'"
     id="text4577"
     y="241"
     x="53"
     class="nonterminal">BlockElementParagraph</text>
  <line
     x1="39"
     y1="237"
     x2="49"
     y2="237"
     class="line"
     id="line4579" />
  <line
     x1="217"
     y1="237"
     x2="227"
     y2="237"
     class="line"
     id="line4581" />
  <line
     x1="250"
     y1="17"
     x2="247"
     y2="17"
     class="line"
     id="line4583" />
  <polygon
     points="257 17 265 13 265 21"
     id="polygon4585" />
  <polygon
     points="257 17 249 13 249 21"
     id="polygon4587" />
</svg>
