<?xml version="1.0" encoding="UTF-8" standalone="no"?>
<svg
   xmlns:dc="http://purl.org/dc/elements/1.1/"
   xmlns:cc="http://creativecommons.org/ns#"
   xmlns:rdf="http://www.w3.org/1999/02/22-rdf-syntax-ns#"
   xmlns:svg="http://www.w3.org/2000/svg"
   xmlns="http://www.w3.org/2000/svg"
   xmlns:xlink="http://www.w3.org/1999/xlink"
   xmlns:sodipodi="http://sodipodi.sourceforge.net/DTD/sodipodi-0.dtd"
   xmlns:inkscape="http://www.inkscape.org/namespaces/inkscape"
   width="518"
   height="68"
   id="svg19730"
   version="1.1"
   inkscape:version="0.48.2 r9819"
   sodipodi:docname="vvakame-UlistElement.svg">
  <metadata
     id="metadata19838">
    <rdf:RDF>
      <cc:Work
         rdf:about="">
        <dc:format>image/svg+xml</dc:format>
        <dc:type
           rdf:resource="http://purl.org/dc/dcmitype/StillImage" />
      </cc:Work>
    </rdf:RDF>
  </metadata>
  <sodipodi:namedview
     pagecolor="#ffffff"
     bordercolor="#666666"
     borderopacity="1"
     objecttolerance="10"
     gridtolerance="10"
     guidetolerance="10"
     inkscape:pageopacity="0"
     inkscape:pageshadow="2"
     inkscape:window-width="640"
     inkscape:window-height="480"
     id="namedview19836"
     showgrid="false"
     inkscape:zoom="0.67953668"
     inkscape:cx="259"
     inkscape:cy="34"
     inkscape:window-x="0"
     inkscape:window-y="0"
     inkscape:window-maximized="0"
     inkscape:current-layer="svg19730" />
  <defs
     id="defs19732">
    <style
       type="text/css"
       xml:space="preserve"
       id="style19734">
    @namespace &quot;http://www.w3.org/2000/svg&quot;;
    .line                 {fill: none; stroke: #262626;}
    .bold-line            {stroke: #0A0A0A; shape-rendering: crispEdges; stroke-width: 2; }
    .thin-line            {stroke: #0F0F0F; shape-rendering: crispEdges}
    .filled               {fill: #262626; stroke: none;}
    text.terminal         {font-family: Verdana, Sans-serif;
                            font-size: 12px;
                            fill: #0A0A0A;
                            font-weight: bold;
                          }
    text.nonterminal      {font-family: Verdana, Sans-serif;
                            font-size: 12px;
                            fill: #0D0D0D;
                          }
    text.regexp           {font-family: Verdana, Sans-serif;
                            font-size: 12px;
                            fill: #0F0F0F;
                          }
    rect, circle, polygon {fill: #262626; stroke: #262626;}
    rect.terminal         {fill: #FFFFFF; stroke: #262626;}
    rect.nonterminal      {fill: #FFFFFF; stroke: #262626;}
    rect.text             {fill: none; stroke: none;}    
    polygon.regexp        {fill: #FFFFFF; stroke: #262626;}
  </style>  </defs>
  <polygon
     points="9 33 1 29 1 37"
     id="polygon19736" />
  <polygon
     points="17 33 9 29 9 37"
     id="polygon19738" />
  <line
     x1="17"
     y1="33"
     x2="19"
     y2="33"
     class="line"
     id="line19740" />
  <rect
     x="51"
     y="19"
     width="24"
     height="32"
     rx="10"
     id="rect19742" />
  <rect
     x="49"
     y="17"
     width="24"
     height="32"
     class="terminal"
     rx="10"
     id="rect19744" />
  <text
     class="terminal"
     x="59"
     y="37"
     id="text19746" />
  <line
     x1="39"
     y1="33"
     x2="49"
     y2="33"
     class="line"
     id="line19748" />
  <line
     x1="73"
     y1="33"
     x2="83"
     y2="33"
     class="line"
     id="line19750" />
  <path
     d="M19 33 L39 33 M38 33 Q29 33 29 23 L29 11 Q29 1 39 1"
     class="line"
     id="path19752" />
  <path
     d="M83 33 L103 33 M83 33 Q93 33 93 23 L93 11 Q93 1 83 1"
     class="line"
     id="path19754" />
  <line
     x1="39"
     y1="1"
     x2="49"
     y2="1"
     class="line"
     id="line19756" />
  <line
     x1="49"
     y1="1"
     x2="83"
     y2="1"
     class="line"
     id="line19758" />
  <rect
     x="135"
     y="19"
     width="28"
     height="32"
     rx="10"
     id="rect19760" />
  <rect
     x="133"
     y="17"
     width="28"
     height="32"
     class="terminal"
     rx="10"
     id="rect19762" />
  <text
     class="terminal"
     x="143"
     y="37"
     id="text19764">*</text>
  <line
     x1="123"
     y1="33"
     x2="133"
     y2="33"
     class="line"
     id="line19766" />
  <line
     x1="161"
     y1="33"
     x2="171"
     y2="33"
     class="line"
     id="line19768" />
  <path
     d="M103 33 L123 33 M122 33 Q113 33 113 23 L113 11 Q113 1 123 1"
     class="line"
     id="path19770" />
  <path
     d="M171 33 L191 33 M171 33 Q181 33 181 23 L181 11 Q181 1 171 1"
     class="line"
     id="path19772" />
  <line
     x1="123"
     y1="1"
     x2="133"
     y2="1"
     class="line"
     id="line19774" />
  <line
     x1="133"
     y1="1"
     x2="171"
     y2="1"
     class="line"
     id="line19776" />
  <a
     xlink:href="#Space"
     xlink:title="Space"
     shape="rect"
     id="a19778">
    <rect
       x="243"
       y="19"
       width="58"
       height="32"
       id="rect19780" />
    <rect
       x="241"
       y="17"
       width="58"
       height="32"
       class="nonterminal"
       id="rect19782" />
    <text
       class="nonterminal"
       x="251"
       y="37"
       id="text19784">Space</text>
  </a>
  <line
     x1="231"
     y1="33"
     x2="241"
     y2="33"
     class="line"
     id="line19786" />
  <line
     x1="299"
     y1="33"
     x2="309"
     y2="33"
     class="line"
     id="line19788" />
  <path
     d="M211 33 L231 33 M230 33 Q221 33 221 23 L221 11 Q221 1 231 1"
     class="line"
     id="path19790" />
  <path
     d="M309 33 L329 33 M309 33 Q319 33 319 23 L319 11 Q319 1 309 1"
     class="line"
     id="path19792" />
  <line
     x1="231"
     y1="1"
     x2="241"
     y2="1"
     class="line"
     id="line19794" />
  <line
     x1="241"
     y1="1"
     x2="309"
     y2="1"
     class="line"
     id="line19796" />
  <line
     x1="191"
     y1="33"
     x2="211"
     y2="33"
     class="line"
     id="line19798" />
  <line
     x1="329"
     y1="33"
     x2="349"
     y2="33"
     class="line"
     id="line19800" />
  <path
     d="M191 33 Q201 33 201 43"
     class="line"
     id="path19802" />
  <path
     d="M339 43 Q339 33 349 33"
     class="line"
     id="path19804" />
  <line
     x1="201"
     y1="43"
     x2="201"
     y2="57"
     class="line"
     id="line19806" />
  <line
     x1="339"
     y1="57"
     x2="339"
     y2="43"
     class="line"
     id="line19808" />
  <path
     d="M201 57 Q201 67 211 67"
     class="line"
     id="path19810" />
  <path
     d="M329 67 Q339 67 339 57"
     class="line"
     id="path19812" />
  <line
     x1="211"
     y1="67"
     x2="221"
     y2="67"
     class="line"
     id="line19814" />
  <line
     x1="221"
     y1="67"
     x2="329"
     y2="67"
     class="line"
     id="line19816" />
  <rect
     style="fill:#262626;stroke:#262626"
     id="rect19820"
     height="32"
     width="130"
     y="19"
     x="361" />
  <rect
     style="fill:#ffffff;stroke:#262626"
     id="rect19822"
     class="nonterminal"
     height="32"
     width="130"
     y="17"
     x="359" />
  <text
     style="font-size:12px;font-weight:bold;fill:#0d0d0d;font-family:'Verdana, Sans-serif'"
     id="text19824"
     y="37"
     x="365"
     class="nonterminal">SinglelineContent</text>
  <line
     x1="349"
     y1="33"
     x2="359"
     y2="33"
     class="line"
     id="line19826" />
  <line
     x1="489"
     y1="33"
     x2="499"
     y2="33"
     class="line"
     id="line19828" />
  <line
     x1="502"
     y1="33"
     x2="499"
     y2="33"
     class="line"
     id="line19830" />
  <polygon
     points="509 33 517 29 517 37"
     id="polygon19832" />
  <polygon
     points="509 33 501 29 501 37"
     id="polygon19834" />
</svg>
