<?xml version="1.0" encoding="UTF-8" standalone="no"?>
<svg
   xmlns:dc="http://purl.org/dc/elements/1.1/"
   xmlns:cc="http://creativecommons.org/ns#"
   xmlns:rdf="http://www.w3.org/1999/02/22-rdf-syntax-ns#"
   xmlns:svg="http://www.w3.org/2000/svg"
   xmlns="http://www.w3.org/2000/svg"
   xmlns:xlink="http://www.w3.org/1999/xlink"
   xmlns:sodipodi="http://sodipodi.sourceforge.net/DTD/sodipodi-0.dtd"
   xmlns:inkscape="http://www.inkscape.org/namespaces/inkscape"
   width="450"
   height="68"
   id="svg17064"
   version="1.1"
   inkscape:version="0.48.2 r9819"
   sodipodi:docname="vvakame-SinglelineComment.svg">
  <metadata
     id="metadata17176">
    <rdf:RDF>
      <cc:Work
         rdf:about="">
        <dc:format>image/svg+xml</dc:format>
        <dc:type
           rdf:resource="http://purl.org/dc/dcmitype/StillImage" />
      </cc:Work>
    </rdf:RDF>
  </metadata>
  <sodipodi:namedview
     pagecolor="#ffffff"
     bordercolor="#666666"
     borderopacity="1"
     objecttolerance="10"
     gridtolerance="10"
     guidetolerance="10"
     inkscape:pageopacity="0"
     inkscape:pageshadow="2"
     inkscape:window-width="640"
     inkscape:window-height="480"
     id="namedview17174"
     showgrid="false"
     inkscape:zoom="0.78222222"
     inkscape:cx="225"
     inkscape:cy="34"
     inkscape:window-x="0"
     inkscape:window-y="0"
     inkscape:window-maximized="0"
     inkscape:current-layer="svg17064" />
  <defs
     id="defs17066">
    <style
       type="text/css"
       xml:space="preserve"
       id="style17068">
    @namespace &quot;http://www.w3.org/2000/svg&quot;;
    .line                 {fill: none; stroke: #262626;}
    .bold-line            {stroke: #0A0A0A; shape-rendering: crispEdges; stroke-width: 2; }
    .thin-line            {stroke: #0F0F0F; shape-rendering: crispEdges}
    .filled               {fill: #262626; stroke: none;}
    text.terminal         {font-family: Verdana, Sans-serif;
                            font-size: 12px;
                            fill: #0A0A0A;
                            font-weight: bold;
                          }
    text.nonterminal      {font-family: Verdana, Sans-serif;
                            font-size: 12px;
                            fill: #0D0D0D;
                          }
    text.regexp           {font-family: Verdana, Sans-serif;
                            font-size: 12px;
                            fill: #0F0F0F;
                          }
    rect, circle, polygon {fill: #262626; stroke: #262626;}
    rect.terminal         {fill: #FFFFFF; stroke: #262626;}
    rect.nonterminal      {fill: #FFFFFF; stroke: #262626;}
    rect.text             {fill: none; stroke: none;}    
    polygon.regexp        {fill: #FFFFFF; stroke: #262626;}
  </style>  </defs>
  <polygon
     points="9 33 1 29 1 37"
     id="polygon17070" />
  <polygon
     points="17 33 9 29 9 37"
     id="polygon17072" />
  <line
     x1="17"
     y1="33"
     x2="19"
     y2="33"
     class="line"
     id="line17074" />
  <rect
     x="31"
     y="19"
     width="42"
     height="32"
     rx="10"
     id="rect17076" />
  <rect
     x="29"
     y="17"
     width="42"
     height="32"
     class="terminal"
     rx="10"
     id="rect17078" />
  <text
     class="terminal"
     x="39"
     y="37"
     id="text17080">#@</text>
  <line
     x1="19"
     y1="33"
     x2="29"
     y2="33"
     class="line"
     id="line17082" />
  <line
     x1="71"
     y1="33"
     x2="81"
     y2="33"
     class="line"
     id="line17084" />
  <polygon
     points="133 35 140 19 198 19 205 35 198 51 140 51"
     id="polygon17086" />
  <polygon
     points="131 33 138 17 196 17 203 33 196 49 138 49"
     class="regexp"
     id="polygon17088" />
  <text
     class="regexp"
     x="146"
     y="37"
     id="text17090">[^\r\n]</text>
  <line
     x1="121"
     y1="33"
     x2="131"
     y2="33"
     class="line"
     id="line17092" />
  <line
     x1="203"
     y1="33"
     x2="213"
     y2="33"
     class="line"
     id="line17094" />
  <path
     d="M101 33 L121 33 M120 33 Q111 33 111 23 L111 11 Q111 1 121 1"
     class="line"
     id="path17096" />
  <path
     d="M213 33 L233 33 M213 33 Q223 33 223 23 L223 11 Q223 1 213 1"
     class="line"
     id="path17098" />
  <line
     x1="121"
     y1="1"
     x2="131"
     y2="1"
     class="line"
     id="line17100" />
  <line
     x1="131"
     y1="1"
     x2="213"
     y2="1"
     class="line"
     id="line17102" />
  <line
     x1="81"
     y1="33"
     x2="101"
     y2="33"
     class="line"
     id="line17104" />
  <line
     x1="233"
     y1="33"
     x2="253"
     y2="33"
     class="line"
     id="line17106" />
  <path
     d="M81 33 Q91 33 91 43"
     class="line"
     id="path17108" />
  <path
     d="M243 43 Q243 33 253 33"
     class="line"
     id="path17110" />
  <line
     x1="91"
     y1="43"
     x2="91"
     y2="57"
     class="line"
     id="line17112" />
  <line
     x1="243"
     y1="57"
     x2="243"
     y2="43"
     class="line"
     id="line17114" />
  <path
     d="M91 57 Q91 67 101 67"
     class="line"
     id="path17116" />
  <path
     d="M233 67 Q243 67 243 57"
     class="line"
     id="path17118" />
  <line
     x1="101"
     y1="67"
     x2="111"
     y2="67"
     class="line"
     id="line17120" />
  <line
     x1="111"
     y1="67"
     x2="233"
     y2="67"
     class="line"
     id="line17122" />
  <rect
     style="fill:#262626;stroke:#262626"
     id="rect17126"
     height="32"
     width="70"
     y="19"
     x="285" />
  <rect
     style="fill:#ffffff;stroke:#262626"
     id="rect17128"
     class="nonterminal"
     height="32"
     width="70"
     y="17"
     x="283" />
  <text
     style="font-size:12px;font-weight:bold;fill:#0d0d0d;font-family:'Verdana, Sans-serif'"
     id="text17130"
     y="37"
     x="291"
     class="nonterminal">Newline</text>
  <line
     x1="273"
     y1="33"
     x2="283"
     y2="33"
     class="line"
     id="line17132" />
  <line
     x1="353"
     y1="33"
     x2="363"
     y2="33"
     class="line"
     id="line17134" />
  <line
     x1="253"
     y1="33"
     x2="273"
     y2="33"
     class="line"
     id="line17136" />
  <line
     x1="363"
     y1="33"
     x2="383"
     y2="33"
     class="line"
     id="line17138" />
  <path
     d="M253 33 Q263 33 263 43"
     class="line"
     id="path17140" />
  <path
     d="M373 43 Q373 33 383 33"
     class="line"
     id="path17142" />
  <line
     x1="263"
     y1="43"
     x2="263"
     y2="57"
     class="line"
     id="line17144" />
  <line
     x1="373"
     y1="57"
     x2="373"
     y2="43"
     class="line"
     id="line17146" />
  <path
     d="M263 57 Q263 67 273 67"
     class="line"
     id="path17148" />
  <path
     d="M363 67 Q373 67 373 57"
     class="line"
     id="path17150" />
  <line
     x1="273"
     y1="67"
     x2="283"
     y2="67"
     class="line"
     id="line17152" />
  <line
     x1="283"
     y1="67"
     x2="363"
     y2="67"
     class="line"
     id="line17154" />
  <a
     xlink:href="#_"
     xlink:title="_"
     shape="rect"
     id="a17156">
    <rect
       x="395"
       y="19"
       width="28"
       height="32"
       id="rect17158" />
    <rect
       x="393"
       y="17"
       width="28"
       height="32"
       class="nonterminal"
       id="rect17160" />
    <text
       class="nonterminal"
       x="403"
       y="37"
       id="text17162">_</text>
  </a>
  <line
     x1="383"
     y1="33"
     x2="393"
     y2="33"
     class="line"
     id="line17164" />
  <line
     x1="421"
     y1="33"
     x2="431"
     y2="33"
     class="line"
     id="line17166" />
  <line
     x1="434"
     y1="33"
     x2="431"
     y2="33"
     class="line"
     id="line17168" />
  <polygon
     points="441 33 449 29 449 37"
     id="polygon17170" />
  <polygon
     points="441 33 433 29 433 37"
     id="polygon17172" />
</svg>
