<svg xmlns:xlink="http://www.w3.org/1999/xlink" xmlns="http://www.w3.org/2000/svg" width="272" height="52"><defs><style type="text/css" xml:space="preserve" xmlns:xml="http://www.w3.org/XML/1998/namespace">
    @namespace "http://www.w3.org/2000/svg";
    .line                 {fill: none; stroke: #262626;}
    .bold-line            {stroke: #0A0A0A; shape-rendering: crispEdges; stroke-width: 2; }
    .thin-line            {stroke: #0F0F0F; shape-rendering: crispEdges}
    .filled               {fill: #262626; stroke: none;}
    text.terminal         {font-family: Verdana, Sans-serif;
                            font-size: 12px;
                            fill: #0A0A0A;
                            font-weight: bold;
                          }
    text.nonterminal      {font-family: Verdana, Sans-serif;
                            font-size: 12px;
                            fill: #0D0D0D;
                          }
    text.regexp           {font-family: Verdana, Sans-serif;
                            font-size: 12px;
                            fill: #0F0F0F;
                          }
    rect, circle, polygon {fill: #262626; stroke: #262626;}
    rect.terminal         {fill: #FFFFFF; stroke: #262626;}
    rect.nonterminal      {fill: #FFFFFF; stroke: #262626;}
    rect.text             {fill: none; stroke: none;}    
    polygon.regexp        {fill: #FFFFFF; stroke: #262626;}
  </style></defs><polygon points="9 17 1 13 1 21"/><polygon points="17 17 9 13 9 21"/><line x1="17" y1="17" x2="19" y2="17" class="line"/><a xlink:href="#_" xlink:title="_" shape="rect"><rect x="31" y="3" width="28" height="32"/><rect x="29" y="1" width="28" height="32" class="nonterminal"/><text class="nonterminal" x="39" y="21">_</text></a><line x1="19" y1="17" x2="29" y2="17" class="line"/><line x1="57" y1="17" x2="67" y2="17" class="line"/><a xlink:href="#Chapters" xlink:title="Chapters" shape="rect"><rect x="99" y="3" width="78" height="32"/><rect x="97" y="1" width="78" height="32" class="nonterminal"/><text class="nonterminal" x="107" y="21">Chapters</text></a><line x1="87" y1="17" x2="97" y2="17" class="line"/><line x1="175" y1="17" x2="185" y2="17" class="line"/><line x1="67" y1="17" x2="87" y2="17" class="line"/><line x1="185" y1="17" x2="205" y2="17" class="line"/><path d="M67 17 Q77 17 77 27" class="line"/><path d="M195 27 Q195 17 205 17" class="line"/><line x1="77" y1="27" x2="77" y2="41" class="line"/><line x1="195" y1="41" x2="195" y2="27" class="line"/><path d="M77 41 Q77 51 87 51" class="line"/><path d="M185 51 Q195 51 195 41" class="line"/><line x1="87" y1="51" x2="97" y2="51" class="line"/><line x1="97" y1="51" x2="185" y2="51" class="line"/><a xlink:href="#_" xlink:title="_" shape="rect"><rect x="217" y="3" width="28" height="32"/><rect x="215" y="1" width="28" height="32" class="nonterminal"/><text class="nonterminal" x="225" y="21">_</text></a><line x1="205" y1="17" x2="215" y2="17" class="line"/><line x1="243" y1="17" x2="253" y2="17" class="line"/><line x1="256" y1="17" x2="253" y2="17" class="line"/><polygon points="263 17 271 13 271 21"/><polygon points="263 17 255 13 255 21"/></svg>