<?xml version="1.0" encoding="UTF-8" standalone="no"?>
<svg
   xmlns:dc="http://purl.org/dc/elements/1.1/"
   xmlns:cc="http://creativecommons.org/ns#"
   xmlns:rdf="http://www.w3.org/1999/02/22-rdf-syntax-ns#"
   xmlns:svg="http://www.w3.org/2000/svg"
   xmlns="http://www.w3.org/2000/svg"
   xmlns:sodipodi="http://sodipodi.sourceforge.net/DTD/sodipodi-0.dtd"
   xmlns:inkscape="http://www.inkscape.org/namespaces/inkscape"
   width="238"
   height="256"
   id="svg3861"
   version="1.1"
   inkscape:version="0.48.2 r9819"
   sodipodi:docname="vvakame-Content.svg">
  <metadata
     id="metadata4027">
    <rdf:RDF>
      <cc:Work
         rdf:about="">
        <dc:format>image/svg+xml</dc:format>
        <dc:type
           rdf:resource="http://purl.org/dc/dcmitype/StillImage" />
      </cc:Work>
    </rdf:RDF>
  </metadata>
  <sodipodi:namedview
     pagecolor="#ffffff"
     bordercolor="#666666"
     borderopacity="1"
     objecttolerance="10"
     gridtolerance="10"
     guidetolerance="10"
     inkscape:pageopacity="0"
     inkscape:pageshadow="2"
     inkscape:window-width="937"
     inkscape:window-height="686"
     id="namedview4025"
     showgrid="false"
     inkscape:zoom="1.4040232"
     inkscape:cx="119"
     inkscape:cy="128"
     inkscape:window-x="0"
     inkscape:window-y="0"
     inkscape:window-maximized="0"
     inkscape:current-layer="svg3861" />
  <defs
     id="defs3863">
    <style
       type="text/css"
       xml:space="preserve"
       id="style3865">
    @namespace &quot;http://www.w3.org/2000/svg&quot;;
    .line                 {fill: none; stroke: #262626;}
    .bold-line            {stroke: #0A0A0A; shape-rendering: crispEdges; stroke-width: 2; }
    .thin-line            {stroke: #0F0F0F; shape-rendering: crispEdges}
    .filled               {fill: #262626; stroke: none;}
    text.terminal         {font-family: Verdana, Sans-serif;
                            font-size: 12px;
                            fill: #0A0A0A;
                            font-weight: bold;
                          }
    text.nonterminal      {font-family: Verdana, Sans-serif;
                            font-size: 12px;
                            fill: #0D0D0D;
                          }
    text.regexp           {font-family: Verdana, Sans-serif;
                            font-size: 12px;
                            fill: #0F0F0F;
                          }
    rect, circle, polygon {fill: #262626; stroke: #262626;}
    rect.terminal         {fill: #FFFFFF; stroke: #262626;}
    rect.nonterminal      {fill: #FFFFFF; stroke: #262626;}
    rect.text             {fill: none; stroke: none;}    
    polygon.regexp        {fill: #FFFFFF; stroke: #262626;}
  </style>  </defs>
  <polygon
     points="9 17 1 13 1 21"
     id="polygon3867" />
  <polygon
     points="17 17 9 13 9 21"
     id="polygon3869" />
  <line
     x1="17"
     y1="17"
     x2="19"
     y2="17"
     class="line"
     id="line3871" />
  <rect
     style="fill:#262626;stroke:#262626"
     id="rect3875"
     height="32"
     width="140"
     y="3"
     x="51" />
  <rect
     style="fill:#ffffff;stroke:#262626"
     id="rect3877"
     class="nonterminal"
     height="32"
     width="140"
     y="1"
     x="49" />
  <text
     style="font-size:12px;font-weight:bold;fill:#0d0d0d;font-family:'Verdana, Sans-serif'"
     id="text3879"
     y="21"
     x="53"
     class="nonterminal">SinglelineComment</text>
  <line
     x1="39"
     y1="17"
     x2="49"
     y2="17"
     class="line"
     id="line3881" />
  <line
     x1="189"
     y1="17"
     x2="199"
     y2="17"
     class="line"
     id="line3883" />
  <line
     x1="19"
     y1="17"
     x2="39"
     y2="17"
     class="line"
     id="line3885" />
  <line
     x1="199"
     y1="17"
     x2="219"
     y2="17"
     class="line"
     id="line3887" />
  <path
     d="M19 17 Q29 17 29 27"
     class="line"
     id="path3889" />
  <path
     d="M209 27 Q209 17 219 17"
     class="line"
     id="path3891" />
  <line
     x1="29"
     y1="27"
     x2="29"
     y2="51"
     class="line"
     id="line3893" />
  <line
     x1="209"
     y1="51"
     x2="209"
     y2="27"
     class="line"
     id="line3895" />
  <path
     d="M29 51 Q29 61 39 61"
     class="line"
     id="path3897" />
  <path
     d="M199 61 Q209 61 209 51"
     class="line"
     id="path3899" />
  <rect
     style="fill:#262626;stroke:#262626"
     id="rect3903"
     height="32"
     width="102"
     y="47"
     x="51" />
  <rect
     style="fill:#ffffff;stroke:#262626"
     id="rect3905"
     class="nonterminal"
     height="32"
     width="102"
     y="45"
     x="49" />
  <text
     style="font-size:12px;font-weight:bold;fill:#0d0d0d;font-family:'Verdana, Sans-serif'"
     id="text3907"
     y="65"
     x="53"
     class="nonterminal">BlockElement</text>
  <line
     x1="39"
     y1="61"
     x2="49"
     y2="61"
     class="line"
     id="line3909" />
  <line
     x1="151"
     y1="61"
     x2="161"
     y2="61"
     class="line"
     id="line3911" />
  <line
     x1="161"
     y1="61"
     x2="199"
     y2="61"
     class="line"
     id="line3913" />
  <line
     x1="29"
     y1="51"
     x2="29"
     y2="71"
     class="line"
     id="line3915" />
  <line
     x1="209"
     y1="71"
     x2="209"
     y2="51"
     class="line"
     id="line3917" />
  <line
     x1="29"
     y1="71"
     x2="29"
     y2="95"
     class="line"
     id="line3919" />
  <line
     x1="209"
     y1="95"
     x2="209"
     y2="71"
     class="line"
     id="line3921" />
  <path
     d="M29 95 Q29 105 39 105"
     class="line"
     id="path3923" />
  <path
     d="M199 105 Q209 105 209 95"
     class="line"
     id="path3925" />
  <rect
     style="fill:#262626;stroke:#262626"
     id="rect3929"
     height="32"
     width="46"
     y="91"
     x="51" />
  <rect
     style="fill:#ffffff;stroke:#262626"
     id="rect3931"
     class="nonterminal"
     height="32"
     width="46"
     y="89"
     x="49" />
  <text
     style="font-size:12px;font-weight:bold;fill:#0d0d0d;font-family:'Verdana, Sans-serif'"
     id="text3933"
     y="109"
     x="57"
     class="nonterminal">Ulist</text>
  <line
     x1="39"
     y1="105"
     x2="49"
     y2="105"
     class="line"
     id="line3935" />
  <line
     x1="95"
     y1="105"
     x2="105"
     y2="105"
     class="line"
     id="line3937" />
  <line
     x1="105"
     y1="105"
     x2="199"
     y2="105"
     class="line"
     id="line3939" />
  <line
     x1="29"
     y1="95"
     x2="29"
     y2="115"
     class="line"
     id="line3941" />
  <line
     x1="209"
     y1="115"
     x2="209"
     y2="95"
     class="line"
     id="line3943" />
  <line
     x1="29"
     y1="115"
     x2="29"
     y2="139"
     class="line"
     id="line3945" />
  <line
     x1="209"
     y1="139"
     x2="209"
     y2="115"
     class="line"
     id="line3947" />
  <path
     d="M29 139 Q29 149 39 149"
     class="line"
     id="path3949" />
  <path
     d="M199 149 Q209 149 209 139"
     class="line"
     id="path3951" />
  <rect
     style="fill:#262626;stroke:#262626"
     id="rect3955"
     height="32"
     width="48"
     y="135"
     x="51" />
  <rect
     style="fill:#ffffff;stroke:#262626"
     id="rect3957"
     class="nonterminal"
     height="32"
     width="48"
     y="133"
     x="49" />
  <text
     style="font-size:12px;font-weight:bold;fill:#0d0d0d;font-family:'Verdana, Sans-serif'"
     id="text3959"
     y="153"
     x="57"
     class="nonterminal">Olist</text>
  <line
     x1="39"
     y1="149"
     x2="49"
     y2="149"
     class="line"
     id="line3961" />
  <line
     x1="97"
     y1="149"
     x2="107"
     y2="149"
     class="line"
     id="line3963" />
  <line
     x1="107"
     y1="149"
     x2="199"
     y2="149"
     class="line"
     id="line3965" />
  <line
     x1="29"
     y1="139"
     x2="29"
     y2="159"
     class="line"
     id="line3967" />
  <line
     x1="209"
     y1="159"
     x2="209"
     y2="139"
     class="line"
     id="line3969" />
  <line
     x1="29"
     y1="159"
     x2="29"
     y2="183"
     class="line"
     id="line3971" />
  <line
     x1="209"
     y1="183"
     x2="209"
     y2="159"
     class="line"
     id="line3973" />
  <path
     d="M29 183 Q29 193 39 193"
     class="line"
     id="path3975" />
  <path
     d="M199 193 Q209 193 209 183"
     class="line"
     id="path3977" />
  <rect
     style="fill:#262626;stroke:#262626"
     id="rect3981"
     height="32"
     width="46"
     y="179"
     x="51" />
  <rect
     style="fill:#ffffff;stroke:#262626"
     id="rect3983"
     class="nonterminal"
     height="32"
     width="46"
     y="177"
     x="49" />
  <text
     style="font-size:12px;font-weight:bold;fill:#0d0d0d;font-family:'Verdana, Sans-serif'"
     id="text3985"
     y="197"
     x="57"
     class="nonterminal">Dlist</text>
  <line
     x1="39"
     y1="193"
     x2="49"
     y2="193"
     class="line"
     id="line3987" />
  <line
     x1="95"
     y1="193"
     x2="105"
     y2="193"
     class="line"
     id="line3989" />
  <line
     x1="105"
     y1="193"
     x2="199"
     y2="193"
     class="line"
     id="line3991" />
  <line
     x1="29"
     y1="183"
     x2="29"
     y2="203"
     class="line"
     id="line3993" />
  <line
     x1="209"
     y1="203"
     x2="209"
     y2="183"
     class="line"
     id="line3995" />
  <line
     x1="29"
     y1="203"
     x2="29"
     y2="227"
     class="line"
     id="line3997" />
  <line
     x1="209"
     y1="227"
     x2="209"
     y2="203"
     class="line"
     id="line3999" />
  <path
     d="M29 227 Q29 237 39 237"
     class="line"
     id="path4001" />
  <path
     d="M199 237 Q209 237 209 227"
     class="line"
     id="path4003" />
  <rect
     style="fill:#262626;stroke:#262626"
     id="rect4007"
     height="32"
     width="86"
     y="223"
     x="51" />
  <rect
     style="fill:#ffffff;stroke:#262626"
     id="rect4009"
     class="nonterminal"
     height="32"
     width="86"
     y="221"
     x="49" />
  <text
     style="font-size:12px;font-weight:bold;fill:#0d0d0d;font-family:'Verdana, Sans-serif'"
     id="text4011"
     y="241"
     x="57"
     class="nonterminal">Paragraph</text>
  <line
     x1="39"
     y1="237"
     x2="49"
     y2="237"
     class="line"
     id="line4013" />
  <line
     x1="135"
     y1="237"
     x2="145"
     y2="237"
     class="line"
     id="line4015" />
  <line
     x1="145"
     y1="237"
     x2="199"
     y2="237"
     class="line"
     id="line4017" />
  <line
     x1="222"
     y1="17"
     x2="219"
     y2="17"
     class="line"
     id="line4019" />
  <polygon
     points="229 17 237 13 237 21"
     id="polygon4021" />
  <polygon
     points="229 17 221 13 221 21"
     id="polygon4023" />
</svg>
