<svg xmlns:xlink="http://www.w3.org/1999/xlink" xmlns="http://www.w3.org/2000/svg" width="182" height="80"><defs><style type="text/css" xml:space="preserve" xmlns:xml="http://www.w3.org/XML/1998/namespace">
    @namespace "http://www.w3.org/2000/svg";
    .line                 {fill: none; stroke: #262626;}
    .bold-line            {stroke: #0A0A0A; shape-rendering: crispEdges; stroke-width: 2; }
    .thin-line            {stroke: #0F0F0F; shape-rendering: crispEdges}
    .filled               {fill: #262626; stroke: none;}
    text.terminal         {font-family: Verdana, Sans-serif;
                            font-size: 12px;
                            fill: #0A0A0A;
                            font-weight: bold;
                          }
    text.nonterminal      {font-family: Verdana, Sans-serif;
                            font-size: 12px;
                            fill: #0D0D0D;
                          }
    text.regexp           {font-family: Verdana, Sans-serif;
                            font-size: 12px;
                            fill: #0F0F0F;
                          }
    rect, circle, polygon {fill: #262626; stroke: #262626;}
    rect.terminal         {fill: #FFFFFF; stroke: #262626;}
    rect.nonterminal      {fill: #FFFFFF; stroke: #262626;}
    rect.text             {fill: none; stroke: none;}    
    polygon.regexp        {fill: #FFFFFF; stroke: #262626;}
  </style></defs><polygon points="9 17 1 13 1 21"/><polygon points="17 17 9 13 9 21"/><line x1="17" y1="17" x2="19" y2="17" class="line"/><rect x="51" y="3" width="32" height="32" rx="10"/><rect x="49" y="1" width="32" height="32" class="terminal" rx="10"/><text class="terminal" x="59" y="21">\r</text><line x1="39" y1="17" x2="49" y2="17" class="line"/><line x1="81" y1="17" x2="91" y2="17" class="line"/><rect x="103" y="3" width="32" height="32" rx="10"/><rect x="101" y="1" width="32" height="32" class="terminal" rx="10"/><text class="terminal" x="111" y="21">\n</text><line x1="91" y1="17" x2="101" y2="17" class="line"/><line x1="133" y1="17" x2="143" y2="17" class="line"/><line x1="19" y1="17" x2="39" y2="17" class="line"/><line x1="143" y1="17" x2="163" y2="17" class="line"/><path d="M19 17 Q29 17 29 27" class="line"/><path d="M153 27 Q153 17 163 17" class="line"/><line x1="29" y1="27" x2="29" y2="51" class="line"/><line x1="153" y1="51" x2="153" y2="27" class="line"/><path d="M29 51 Q29 61 39 61" class="line"/><path d="M143 61 Q153 61 153 51" class="line"/><rect x="51" y="47" width="32" height="32" rx="10"/><rect x="49" y="45" width="32" height="32" class="terminal" rx="10"/><text class="terminal" x="59" y="65">\n</text><line x1="39" y1="61" x2="49" y2="61" class="line"/><line x1="81" y1="61" x2="91" y2="61" class="line"/><line x1="91" y1="61" x2="143" y2="61" class="line"/><line x1="166" y1="17" x2="163" y2="17" class="line"/><polygon points="173 17 181 13 181 21"/><polygon points="173 17 165 13 165 21"/></svg>