<?xml version="1.0" encoding="UTF-8" standalone="no"?>
<svg
   xmlns:dc="http://purl.org/dc/elements/1.1/"
   xmlns:cc="http://creativecommons.org/ns#"
   xmlns:rdf="http://www.w3.org/1999/02/22-rdf-syntax-ns#"
   xmlns:svg="http://www.w3.org/2000/svg"
   xmlns="http://www.w3.org/2000/svg"
   xmlns:sodipodi="http://sodipodi.sourceforge.net/DTD/sodipodi-0.dtd"
   xmlns:inkscape="http://www.inkscape.org/namespaces/inkscape"
   width="346"
   height="80"
   id="svg14092"
   version="1.1"
   inkscape:version="0.48.2 r9819"
   sodipodi:docname="vvakame-Olist.svg">
  <metadata
     id="metadata14186">
    <rdf:RDF>
      <cc:Work
         rdf:about="">
        <dc:format>image/svg+xml</dc:format>
        <dc:type
           rdf:resource="http://purl.org/dc/dcmitype/StillImage" />
      </cc:Work>
    </rdf:RDF>
  </metadata>
  <sodipodi:namedview
     pagecolor="#ffffff"
     bordercolor="#666666"
     borderopacity="1"
     objecttolerance="10"
     gridtolerance="10"
     guidetolerance="10"
     inkscape:pageopacity="0"
     inkscape:pageshadow="2"
     inkscape:window-width="640"
     inkscape:window-height="480"
     id="namedview14184"
     showgrid="false"
     inkscape:zoom="1.017341"
     inkscape:cx="173"
     inkscape:cy="40"
     inkscape:window-x="0"
     inkscape:window-y="0"
     inkscape:window-maximized="0"
     inkscape:current-layer="svg14092" />
  <defs
     id="defs14094">
    <style
       type="text/css"
       xml:space="preserve"
       id="style14096">
    @namespace &quot;http://www.w3.org/2000/svg&quot;;
    .line                 {fill: none; stroke: #262626;}
    .bold-line            {stroke: #0A0A0A; shape-rendering: crispEdges; stroke-width: 2; }
    .thin-line            {stroke: #0F0F0F; shape-rendering: crispEdges}
    .filled               {fill: #262626; stroke: none;}
    text.terminal         {font-family: Verdana, Sans-serif;
                            font-size: 12px;
                            fill: #0A0A0A;
                            font-weight: bold;
                          }
    text.nonterminal      {font-family: Verdana, Sans-serif;
                            font-size: 12px;
                            fill: #0D0D0D;
                          }
    text.regexp           {font-family: Verdana, Sans-serif;
                            font-size: 12px;
                            fill: #0F0F0F;
                          }
    rect, circle, polygon {fill: #262626; stroke: #262626;}
    rect.terminal         {fill: #FFFFFF; stroke: #262626;}
    rect.nonterminal      {fill: #FFFFFF; stroke: #262626;}
    rect.text             {fill: none; stroke: none;}    
    polygon.regexp        {fill: #FFFFFF; stroke: #262626;}
  </style>  </defs>
  <polygon
     points="9 17 1 13 1 21"
     id="polygon14098" />
  <polygon
     points="17 17 9 13 9 21"
     id="polygon14100" />
  <line
     x1="17"
     y1="17"
     x2="19"
     y2="17"
     class="line"
     id="line14102" />
  <rect
     style="fill:#262626;stroke:#262626"
     id="rect14106"
     height="32"
     width="98"
     y="3"
     x="51" />
  <rect
     style="fill:#ffffff;stroke:#262626"
     id="rect14108"
     class="nonterminal"
     height="32"
     width="98"
     y="1"
     x="49" />
  <text
     style="font-size:12px;font-weight:bold;fill:#0d0d0d;font-family:'Verdana, Sans-serif'"
     id="text14110"
     y="21"
     x="55"
     class="nonterminal">OlistElement</text>
  <line
     x1="39"
     y1="17"
     x2="49"
     y2="17"
     class="line"
     id="line14112" />
  <line
     x1="147"
     y1="17"
     x2="157"
     y2="17"
     class="line"
     id="line14114" />
  <line
     x1="157"
     y1="17"
     x2="199"
     y2="17"
     class="line"
     id="line14116" />
  <line
     x1="19"
     y1="17"
     x2="39"
     y2="17"
     class="line"
     id="line14118" />
  <line
     x1="199"
     y1="17"
     x2="219"
     y2="17"
     class="line"
     id="line14120" />
  <path
     d="M19 17 Q29 17 29 27"
     class="line"
     id="path14122" />
  <path
     d="M209 27 Q209 17 219 17"
     class="line"
     id="path14124" />
  <line
     x1="29"
     y1="27"
     x2="29"
     y2="51"
     class="line"
     id="line14126" />
  <line
     x1="209"
     y1="51"
     x2="209"
     y2="27"
     class="line"
     id="line14128" />
  <path
     d="M29 51 Q29 61 39 61"
     class="line"
     id="path14130" />
  <path
     d="M199 61 Q209 61 209 51"
     class="line"
     id="path14132" />
  <rect
     style="fill:#262626;stroke:#262626"
     id="rect14136"
     height="32"
     width="140"
     y="47"
     x="51" />
  <rect
     style="fill:#ffffff;stroke:#262626"
     id="rect14138"
     class="nonterminal"
     height="32"
     width="140"
     y="45"
     x="49" />
  <text
     style="font-size:12px;font-weight:bold;fill:#0d0d0d;font-family:'Verdana, Sans-serif'"
     id="text14140"
     y="65"
     x="55"
     class="nonterminal">SinglelineComment</text>
  <line
     x1="39"
     y1="61"
     x2="49"
     y2="61"
     class="line"
     id="line14142" />
  <line
     x1="189"
     y1="61"
     x2="199"
     y2="61"
     class="line"
     id="line14144" />
  <rect
     style="fill:#262626;stroke:#262626"
     id="rect14148"
     height="32"
     width="48"
     y="3"
     x="251" />
  <rect
     style="fill:#ffffff;stroke:#262626"
     id="rect14150"
     class="nonterminal"
     height="32"
     width="48"
     y="1"
     x="249" />
  <text
     style="font-size:12px;font-weight:bold;fill:#0d0d0d;font-family:'Verdana, Sans-serif'"
     id="text14152"
     y="21"
     x="257"
     class="nonterminal">Olist</text>
  <line
     x1="239"
     y1="17"
     x2="249"
     y2="17"
     class="line"
     id="line14154" />
  <line
     x1="297"
     y1="17"
     x2="307"
     y2="17"
     class="line"
     id="line14156" />
  <line
     x1="219"
     y1="17"
     x2="239"
     y2="17"
     class="line"
     id="line14158" />
  <line
     x1="307"
     y1="17"
     x2="327"
     y2="17"
     class="line"
     id="line14160" />
  <path
     d="M219 17 Q229 17 229 27"
     class="line"
     id="path14162" />
  <path
     d="M317 27 Q317 17 327 17"
     class="line"
     id="path14164" />
  <line
     x1="229"
     y1="27"
     x2="229"
     y2="41"
     class="line"
     id="line14166" />
  <line
     x1="317"
     y1="41"
     x2="317"
     y2="27"
     class="line"
     id="line14168" />
  <path
     d="M229 41 Q229 51 239 51"
     class="line"
     id="path14170" />
  <path
     d="M307 51 Q317 51 317 41"
     class="line"
     id="path14172" />
  <line
     x1="239"
     y1="51"
     x2="249"
     y2="51"
     class="line"
     id="line14174" />
  <line
     x1="249"
     y1="51"
     x2="307"
     y2="51"
     class="line"
     id="line14176" />
  <line
     x1="330"
     y1="17"
     x2="327"
     y2="17"
     class="line"
     id="line14178" />
  <polygon
     points="337 17 345 13 345 21"
     id="polygon14180" />
  <polygon
     points="337 17 329 13 329 21"
     id="polygon14182" />
</svg>
