<?xml version="1.0" encoding="UTF-8" standalone="no"?>
<svg
   xmlns:dc="http://purl.org/dc/elements/1.1/"
   xmlns:cc="http://creativecommons.org/ns#"
   xmlns:rdf="http://www.w3.org/1999/02/22-rdf-syntax-ns#"
   xmlns:svg="http://www.w3.org/2000/svg"
   xmlns="http://www.w3.org/2000/svg"
   xmlns:xlink="http://www.w3.org/1999/xlink"
   xmlns:sodipodi="http://sodipodi.sourceforge.net/DTD/sodipodi-0.dtd"
   xmlns:inkscape="http://www.inkscape.org/namespaces/inkscape"
   width="548"
   height="68"
   id="svg14550"
   version="1.1"
   inkscape:version="0.48.2 r9819"
   sodipodi:docname="vvakame-OlistElement.svg">
  <metadata
     id="metadata14662">
    <rdf:RDF>
      <cc:Work
         rdf:about="">
        <dc:format>image/svg+xml</dc:format>
        <dc:type
           rdf:resource="http://purl.org/dc/dcmitype/StillImage" />
      </cc:Work>
    </rdf:RDF>
  </metadata>
  <sodipodi:namedview
     pagecolor="#ffffff"
     bordercolor="#666666"
     borderopacity="1"
     objecttolerance="10"
     gridtolerance="10"
     guidetolerance="10"
     inkscape:pageopacity="0"
     inkscape:pageshadow="2"
     inkscape:window-width="640"
     inkscape:window-height="480"
     id="namedview14660"
     showgrid="false"
     inkscape:zoom="0.64233577"
     inkscape:cx="274"
     inkscape:cy="34"
     inkscape:window-x="0"
     inkscape:window-y="0"
     inkscape:window-maximized="0"
     inkscape:current-layer="svg14550" />
  <defs
     id="defs14552">
    <style
       type="text/css"
       xml:space="preserve"
       id="style14554">
    @namespace &quot;http://www.w3.org/2000/svg&quot;;
    .line                 {fill: none; stroke: #262626;}
    .bold-line            {stroke: #0A0A0A; shape-rendering: crispEdges; stroke-width: 2; }
    .thin-line            {stroke: #0F0F0F; shape-rendering: crispEdges}
    .filled               {fill: #262626; stroke: none;}
    text.terminal         {font-family: Verdana, Sans-serif;
                            font-size: 12px;
                            fill: #0A0A0A;
                            font-weight: bold;
                          }
    text.nonterminal      {font-family: Verdana, Sans-serif;
                            font-size: 12px;
                            fill: #0D0D0D;
                          }
    text.regexp           {font-family: Verdana, Sans-serif;
                            font-size: 12px;
                            fill: #0F0F0F;
                          }
    rect, circle, polygon {fill: #262626; stroke: #262626;}
    rect.terminal         {fill: #FFFFFF; stroke: #262626;}
    rect.nonterminal      {fill: #FFFFFF; stroke: #262626;}
    rect.text             {fill: none; stroke: none;}    
    polygon.regexp        {fill: #FFFFFF; stroke: #262626;}
  </style>  </defs>
  <polygon
     points="9 33 1 29 1 37"
     id="polygon14556" />
  <polygon
     points="17 33 9 29 9 37"
     id="polygon14558" />
  <line
     x1="17"
     y1="33"
     x2="19"
     y2="33"
     class="line"
     id="line14560" />
  <rect
     x="51"
     y="19"
     width="24"
     height="32"
     rx="10"
     id="rect14562" />
  <rect
     x="49"
     y="17"
     width="24"
     height="32"
     class="terminal"
     rx="10"
     id="rect14564" />
  <text
     class="terminal"
     x="59"
     y="37"
     id="text14566" />
  <line
     x1="39"
     y1="33"
     x2="49"
     y2="33"
     class="line"
     id="line14568" />
  <line
     x1="73"
     y1="33"
     x2="83"
     y2="33"
     class="line"
     id="line14570" />
  <path
     d="M19 33 L39 33 M38 33 Q29 33 29 23 L29 11 Q29 1 39 1"
     class="line"
     id="path14572" />
  <path
     d="M83 33 L103 33 M83 33 Q93 33 93 23 L93 11 Q93 1 83 1"
     class="line"
     id="path14574" />
  <line
     x1="39"
     y1="1"
     x2="49"
     y2="1"
     class="line"
     id="line14576" />
  <line
     x1="49"
     y1="1"
     x2="83"
     y2="1"
     class="line"
     id="line14578" />
  <a
     xlink:href="#Digits"
     xlink:title="Digits"
     shape="rect"
     id="a14580">
    <rect
       x="115"
       y="19"
       width="54"
       height="32"
       id="rect14582" />
    <rect
       x="113"
       y="17"
       width="54"
       height="32"
       class="nonterminal"
       id="rect14584" />
    <text
       class="nonterminal"
       x="123"
       y="37"
       id="text14586">Digits</text>
  </a>
  <line
     x1="103"
     y1="33"
     x2="113"
     y2="33"
     class="line"
     id="line14588" />
  <line
     x1="167"
     y1="33"
     x2="177"
     y2="33"
     class="line"
     id="line14590" />
  <rect
     x="189"
     y="19"
     width="24"
     height="32"
     rx="10"
     id="rect14592" />
  <rect
     x="187"
     y="17"
     width="24"
     height="32"
     class="terminal"
     rx="10"
     id="rect14594" />
  <text
     class="terminal"
     x="197"
     y="37"
     id="text14596">.</text>
  <line
     x1="177"
     y1="33"
     x2="187"
     y2="33"
     class="line"
     id="line14598" />
  <line
     x1="211"
     y1="33"
     x2="221"
     y2="33"
     class="line"
     id="line14600" />
  <a
     xlink:href="#Space"
     xlink:title="Space"
     shape="rect"
     id="a14602">
    <rect
       x="273"
       y="19"
       width="58"
       height="32"
       id="rect14604" />
    <rect
       x="271"
       y="17"
       width="58"
       height="32"
       class="nonterminal"
       id="rect14606" />
    <text
       class="nonterminal"
       x="281"
       y="37"
       id="text14608">Space</text>
  </a>
  <line
     x1="261"
     y1="33"
     x2="271"
     y2="33"
     class="line"
     id="line14610" />
  <line
     x1="329"
     y1="33"
     x2="339"
     y2="33"
     class="line"
     id="line14612" />
  <path
     d="M241 33 L261 33 M260 33 Q251 33 251 23 L251 11 Q251 1 261 1"
     class="line"
     id="path14614" />
  <path
     d="M339 33 L359 33 M339 33 Q349 33 349 23 L349 11 Q349 1 339 1"
     class="line"
     id="path14616" />
  <line
     x1="261"
     y1="1"
     x2="271"
     y2="1"
     class="line"
     id="line14618" />
  <line
     x1="271"
     y1="1"
     x2="339"
     y2="1"
     class="line"
     id="line14620" />
  <line
     x1="221"
     y1="33"
     x2="241"
     y2="33"
     class="line"
     id="line14622" />
  <line
     x1="359"
     y1="33"
     x2="379"
     y2="33"
     class="line"
     id="line14624" />
  <path
     d="M221 33 Q231 33 231 43"
     class="line"
     id="path14626" />
  <path
     d="M369 43 Q369 33 379 33"
     class="line"
     id="path14628" />
  <line
     x1="231"
     y1="43"
     x2="231"
     y2="57"
     class="line"
     id="line14630" />
  <line
     x1="369"
     y1="57"
     x2="369"
     y2="43"
     class="line"
     id="line14632" />
  <path
     d="M231 57 Q231 67 241 67"
     class="line"
     id="path14634" />
  <path
     d="M359 67 Q369 67 369 57"
     class="line"
     id="path14636" />
  <line
     x1="241"
     y1="67"
     x2="251"
     y2="67"
     class="line"
     id="line14638" />
  <line
     x1="251"
     y1="67"
     x2="359"
     y2="67"
     class="line"
     id="line14640" />
  <rect
     style="fill:#262626;stroke:#262626"
     id="rect14644"
     height="32"
     width="130"
     y="19"
     x="391" />
  <rect
     style="fill:#ffffff;stroke:#262626"
     id="rect14646"
     class="nonterminal"
     height="32"
     width="130"
     y="17"
     x="389" />
  <text
     style="font-size:12px;font-weight:bold;fill:#0d0d0d;font-family:'Verdana, Sans-serif'"
     id="text14648"
     y="37"
     x="395"
     class="nonterminal">SinglelineContent</text>
  <line
     x1="379"
     y1="33"
     x2="389"
     y2="33"
     class="line"
     id="line14650" />
  <line
     x1="519"
     y1="33"
     x2="529"
     y2="33"
     class="line"
     id="line14652" />
  <line
     x1="532"
     y1="33"
     x2="529"
     y2="33"
     class="line"
     id="line14654" />
  <polygon
     points="539 33 547 29 547 37"
     id="polygon14656" />
  <polygon
     points="539 33 531 29 531 37"
     id="polygon14658" />
</svg>
