<?xml version="1.0" encoding="UTF-8" standalone="no"?>
<svg
   xmlns:dc="http://purl.org/dc/elements/1.1/"
   xmlns:cc="http://creativecommons.org/ns#"
   xmlns:rdf="http://www.w3.org/1999/02/22-rdf-syntax-ns#"
   xmlns:svg="http://www.w3.org/2000/svg"
   xmlns="http://www.w3.org/2000/svg"
   xmlns:xlink="http://www.w3.org/1999/xlink"
   xmlns:sodipodi="http://sodipodi.sourceforge.net/DTD/sodipodi-0.dtd"
   xmlns:inkscape="http://www.inkscape.org/namespaces/inkscape"
   width="890"
   height="68"
   id="svg12026"
   version="1.1"
   inkscape:version="0.48.2 r9819"
   sodipodi:docname="vvakame-Headline.svg">
  <metadata
     id="metadata12220">
    <rdf:RDF>
      <cc:Work
         rdf:about="">
        <dc:format>image/svg+xml</dc:format>
        <dc:type
           rdf:resource="http://purl.org/dc/dcmitype/StillImage" />
      </cc:Work>
    </rdf:RDF>
  </metadata>
  <sodipodi:namedview
     pagecolor="#ffffff"
     bordercolor="#666666"
     borderopacity="1"
     objecttolerance="10"
     gridtolerance="10"
     guidetolerance="10"
     inkscape:pageopacity="0"
     inkscape:pageshadow="2"
     inkscape:window-width="1114"
     inkscape:window-height="689"
     id="namedview12218"
     showgrid="false"
     inkscape:zoom="0.91"
     inkscape:cx="445"
     inkscape:cy="34"
     inkscape:window-x="0"
     inkscape:window-y="0"
     inkscape:window-maximized="0"
     inkscape:current-layer="svg12026" />
  <defs
     id="defs12028">
    <style
       type="text/css"
       xml:space="preserve"
       id="style12030">
    @namespace &quot;http://www.w3.org/2000/svg&quot;;
    .line                 {fill: none; stroke: #262626;}
    .bold-line            {stroke: #0A0A0A; shape-rendering: crispEdges; stroke-width: 2; }
    .thin-line            {stroke: #0F0F0F; shape-rendering: crispEdges}
    .filled               {fill: #262626; stroke: none;}
    text.terminal         {font-family: Verdana, Sans-serif;
                            font-size: 12px;
                            fill: #0A0A0A;
                            font-weight: bold;
                          }
    text.nonterminal      {font-family: Verdana, Sans-serif;
                            font-size: 12px;
                            fill: #0D0D0D;
                          }
    text.regexp           {font-family: Verdana, Sans-serif;
                            font-size: 12px;
                            fill: #0F0F0F;
                          }
    rect, circle, polygon {fill: #262626; stroke: #262626;}
    rect.terminal         {fill: #FFFFFF; stroke: #262626;}
    rect.nonterminal      {fill: #FFFFFF; stroke: #262626;}
    rect.text             {fill: none; stroke: none;}    
    polygon.regexp        {fill: #FFFFFF; stroke: #262626;}
  </style>  </defs>
  <polygon
     points="9 33 1 29 1 37"
     id="polygon12032" />
  <polygon
     points="17 33 9 29 9 37"
     id="polygon12034" />
  <line
     x1="17"
     y1="33"
     x2="19"
     y2="33"
     class="line"
     id="line12036" />
  <rect
     x="51"
     y="19"
     width="30"
     height="32"
     rx="10"
     id="rect12038" />
  <rect
     x="49"
     y="17"
     width="30"
     height="32"
     class="terminal"
     rx="10"
     id="rect12040" />
  <text
     class="terminal"
     x="59"
     y="37"
     id="text12042">=</text>
  <line
     x1="39"
     y1="33"
     x2="49"
     y2="33"
     class="line"
     id="line12044" />
  <line
     x1="79"
     y1="33"
     x2="89"
     y2="33"
     class="line"
     id="line12046" />
  <path
     d="M19 33 L39 33 M38 33 Q29 33 29 23 L29 11 Q29 1 39 1"
     class="line"
     id="path12048" />
  <path
     d="M89 33 L109 33 M89 33 Q99 33 99 23 L99 11 Q99 1 89 1"
     class="line"
     id="path12050" />
  <line
     x1="39"
     y1="1"
     x2="49"
     y2="1"
     class="line"
     id="line12052" />
  <line
     x1="49"
     y1="1"
     x2="89"
     y2="1"
     class="line"
     id="line12054" />
  <rect
     style="fill:#262626;stroke:#262626"
     id="rect12058"
     height="32"
     width="88"
     y="19"
     x="141" />
  <rect
     style="fill:#ffffff;stroke:#262626"
     id="rect12060"
     class="nonterminal"
     height="32"
     width="88"
     y="17"
     x="139" />
  <text
     style="font-size:12px;font-weight:bold;fill:#0d0d0d;font-family:'Verdana, Sans-serif'"
     id="text12062"
     y="37"
     x="147"
     class="nonterminal">BracketArg</text>
  <line
     x1="129"
     y1="33"
     x2="139"
     y2="33"
     class="line"
     id="line12064" />
  <line
     x1="227"
     y1="33"
     x2="237"
     y2="33"
     class="line"
     id="line12066" />
  <line
     x1="109"
     y1="33"
     x2="129"
     y2="33"
     class="line"
     id="line12068" />
  <line
     x1="237"
     y1="33"
     x2="257"
     y2="33"
     class="line"
     id="line12070" />
  <path
     d="M109 33 Q119 33 119 43"
     class="line"
     id="path12072" />
  <path
     d="M247 43 Q247 33 257 33"
     class="line"
     id="path12074" />
  <line
     x1="119"
     y1="43"
     x2="119"
     y2="57"
     class="line"
     id="line12076" />
  <line
     x1="247"
     y1="57"
     x2="247"
     y2="43"
     class="line"
     id="line12078" />
  <path
     d="M119 57 Q119 67 129 67"
     class="line"
     id="path12080" />
  <path
     d="M237 67 Q247 67 247 57"
     class="line"
     id="path12082" />
  <line
     x1="129"
     y1="67"
     x2="139"
     y2="67"
     class="line"
     id="line12084" />
  <line
     x1="139"
     y1="67"
     x2="237"
     y2="67"
     class="line"
     id="line12086" />
  <rect
     style="fill:#262626;stroke:#262626"
     id="rect12090"
     height="32"
     width="76"
     y="19"
     x="289" />
  <rect
     style="fill:#ffffff;stroke:#262626"
     id="rect12092"
     class="nonterminal"
     height="32"
     width="76"
     y="17"
     x="287" />
  <text
     style="font-size:12px;font-weight:bold;fill:#0d0d0d;font-family:'Verdana, Sans-serif'"
     id="text12094"
     y="37"
     x="295"
     class="nonterminal">BraceArg</text>
  <line
     x1="277"
     y1="33"
     x2="287"
     y2="33"
     class="line"
     id="line12096" />
  <line
     x1="363"
     y1="33"
     x2="373"
     y2="33"
     class="line"
     id="line12098" />
  <line
     x1="257"
     y1="33"
     x2="277"
     y2="33"
     class="line"
     id="line12100" />
  <line
     x1="373"
     y1="33"
     x2="393"
     y2="33"
     class="line"
     id="line12102" />
  <path
     d="M257 33 Q267 33 267 43"
     class="line"
     id="path12104" />
  <path
     d="M383 43 Q383 33 393 33"
     class="line"
     id="path12106" />
  <line
     x1="267"
     y1="43"
     x2="267"
     y2="57"
     class="line"
     id="line12108" />
  <line
     x1="383"
     y1="57"
     x2="383"
     y2="43"
     class="line"
     id="line12110" />
  <path
     d="M267 57 Q267 67 277 67"
     class="line"
     id="path12112" />
  <path
     d="M373 67 Q383 67 383 57"
     class="line"
     id="path12114" />
  <line
     x1="277"
     y1="67"
     x2="287"
     y2="67"
     class="line"
     id="line12116" />
  <line
     x1="287"
     y1="67"
     x2="373"
     y2="67"
     class="line"
     id="line12118" />
  <a
     xlink:href="#Space"
     xlink:title="Space"
     shape="rect"
     id="a12120">
    <rect
       x="445"
       y="19"
       width="58"
       height="32"
       id="rect12122" />
    <rect
       x="443"
       y="17"
       width="58"
       height="32"
       class="nonterminal"
       id="rect12124" />
    <text
       class="nonterminal"
       x="453"
       y="37"
       id="text12126">Space</text>
  </a>
  <line
     x1="433"
     y1="33"
     x2="443"
     y2="33"
     class="line"
     id="line12128" />
  <line
     x1="501"
     y1="33"
     x2="511"
     y2="33"
     class="line"
     id="line12130" />
  <path
     d="M413 33 L433 33 M432 33 Q423 33 423 23 L423 11 Q423 1 433 1"
     class="line"
     id="path12132" />
  <path
     d="M511 33 L531 33 M511 33 Q521 33 521 23 L521 11 Q521 1 511 1"
     class="line"
     id="path12134" />
  <line
     x1="433"
     y1="1"
     x2="443"
     y2="1"
     class="line"
     id="line12136" />
  <line
     x1="443"
     y1="1"
     x2="511"
     y2="1"
     class="line"
     id="line12138" />
  <line
     x1="393"
     y1="33"
     x2="413"
     y2="33"
     class="line"
     id="line12140" />
  <line
     x1="531"
     y1="33"
     x2="551"
     y2="33"
     class="line"
     id="line12142" />
  <path
     d="M393 33 Q403 33 403 43"
     class="line"
     id="path12144" />
  <path
     d="M541 43 Q541 33 551 33"
     class="line"
     id="path12146" />
  <line
     x1="403"
     y1="43"
     x2="403"
     y2="57"
     class="line"
     id="line12148" />
  <line
     x1="541"
     y1="57"
     x2="541"
     y2="43"
     class="line"
     id="line12150" />
  <path
     d="M403 57 Q403 67 413 67"
     class="line"
     id="path12152" />
  <path
     d="M531 67 Q541 67 541 57"
     class="line"
     id="path12154" />
  <line
     x1="413"
     y1="67"
     x2="423"
     y2="67"
     class="line"
     id="line12156" />
  <line
     x1="423"
     y1="67"
     x2="531"
     y2="67"
     class="line"
     id="line12158" />
  <rect
     style="fill:#262626;stroke:#262626"
     id="rect12162"
     height="32"
     width="130"
     y="19"
     x="563" />
  <rect
     style="fill:#ffffff;stroke:#262626"
     id="rect12164"
     class="nonterminal"
     height="32"
     width="130"
     y="17"
     x="561" />
  <text
     style="font-size:12px;font-weight:bold;fill:#0d0d0d;font-family:'Verdana, Sans-serif'"
     id="text12166"
     y="37"
     x="567"
     class="nonterminal">SinglelineContent</text>
  <line
     x1="551"
     y1="33"
     x2="561"
     y2="33"
     class="line"
     id="line12168" />
  <line
     x1="691"
     y1="33"
     x2="701"
     y2="33"
     class="line"
     id="line12170" />
  <rect
     style="fill:#262626;stroke:#262626"
     id="rect12174"
     height="32"
     width="70"
     y="19"
     x="753" />
  <rect
     style="fill:#ffffff;stroke:#262626"
     id="rect12176"
     class="nonterminal"
     height="32"
     width="70"
     y="17"
     x="751" />
  <text
     style="font-size:12px;font-weight:bold;fill:#0d0d0d;font-family:'Verdana, Sans-serif'"
     id="text12178"
     y="37"
     x="759"
     class="nonterminal">Newline</text>
  <line
     x1="741"
     y1="33"
     x2="751"
     y2="33"
     class="line"
     id="line12180" />
  <line
     x1="821"
     y1="33"
     x2="831"
     y2="33"
     class="line"
     id="line12182" />
  <path
     d="M721 33 L741 33 M740 33 Q731 33 731 23 L731 11 Q731 1 741 1"
     class="line"
     id="path12184" />
  <path
     d="M831 33 L851 33 M831 33 Q841 33 841 23 L841 11 Q841 1 831 1"
     class="line"
     id="path12186" />
  <line
     x1="741"
     y1="1"
     x2="751"
     y2="1"
     class="line"
     id="line12188" />
  <line
     x1="751"
     y1="1"
     x2="831"
     y2="1"
     class="line"
     id="line12190" />
  <line
     x1="701"
     y1="33"
     x2="721"
     y2="33"
     class="line"
     id="line12192" />
  <line
     x1="851"
     y1="33"
     x2="871"
     y2="33"
     class="line"
     id="line12194" />
  <path
     d="M701 33 Q711 33 711 43"
     class="line"
     id="path12196" />
  <path
     d="M861 43 Q861 33 871 33"
     class="line"
     id="path12198" />
  <line
     x1="711"
     y1="43"
     x2="711"
     y2="57"
     class="line"
     id="line12200" />
  <line
     x1="861"
     y1="57"
     x2="861"
     y2="43"
     class="line"
     id="line12202" />
  <path
     d="M711 57 Q711 67 721 67"
     class="line"
     id="path12204" />
  <path
     d="M851 67 Q861 67 861 57"
     class="line"
     id="path12206" />
  <line
     x1="721"
     y1="67"
     x2="731"
     y2="67"
     class="line"
     id="line12208" />
  <line
     x1="731"
     y1="67"
     x2="851"
     y2="67"
     class="line"
     id="line12210" />
  <line
     x1="874"
     y1="33"
     x2="871"
     y2="33"
     class="line"
     id="line12212" />
  <polygon
     points="881 33 889 29 889 37"
     id="polygon12214" />
  <polygon
     points="881 33 873 29 873 37"
     id="polygon12216" />
</svg>
