<svg xmlns:xlink="http://www.w3.org/1999/xlink" xmlns="http://www.w3.org/2000/svg" width="458" height="68"><defs><style type="text/css" xml:space="preserve" xmlns:xml="http://www.w3.org/XML/1998/namespace">
    @namespace "http://www.w3.org/2000/svg";
    .line                 {fill: none; stroke: #262626;}
    .bold-line            {stroke: #0A0A0A; shape-rendering: crispEdges; stroke-width: 2; }
    .thin-line            {stroke: #0F0F0F; shape-rendering: crispEdges}
    .filled               {fill: #262626; stroke: none;}
    text.terminal         {font-family: Verdana, Sans-serif;
                            font-size: 12px;
                            fill: #0A0A0A;
                            font-weight: bold;
                          }
    text.nonterminal      {font-family: Verdana, Sans-serif;
                            font-size: 12px;
                            fill: #0D0D0D;
                          }
    text.regexp           {font-family: Verdana, Sans-serif;
                            font-size: 12px;
                            fill: #0F0F0F;
                          }
    rect, circle, polygon {fill: #262626; stroke: #262626;}
    rect.terminal         {fill: #FFFFFF; stroke: #262626;}
    rect.nonterminal      {fill: #FFFFFF; stroke: #262626;}
    rect.text             {fill: none; stroke: none;}    
    polygon.regexp        {fill: #FFFFFF; stroke: #262626;}
  </style></defs><polygon points="9 33 1 29 1 37"/><polygon points="17 33 9 29 9 37"/><line x1="17" y1="33" x2="19" y2="33" class="line"/><polygon points="51 35 58 19 116 19 123 35 116 51 58 51"/><polygon points="49 33 56 17 114 17 121 33 114 49 56 49" class="regexp"/><text class="regexp" x="64" y="37">[^\r\n]</text><line x1="39" y1="33" x2="49" y2="33" class="line"/><line x1="121" y1="33" x2="131" y2="33" class="line"/><path d="M19 33 L39 33 M38 33 Q29 33 29 23 L29 11 Q29 1 39 1" class="line"/><path d="M131 33 L151 33 M131 33 Q141 33 141 23 L141 11 Q141 1 131 1" class="line"/><line x1="39" y1="1" x2="49" y2="1" class="line"/><line x1="49" y1="1" x2="131" y2="1" class="line"/><a xlink:href="#Newline" xlink:title="Newline" shape="rect"><rect x="183" y="19" width="70" height="32"/><rect x="181" y="17" width="70" height="32" class="nonterminal"/><text class="nonterminal" x="191" y="37">Newline</text></a><line x1="171" y1="33" x2="181" y2="33" class="line"/><line x1="251" y1="33" x2="261" y2="33" class="line"/><line x1="151" y1="33" x2="171" y2="33" class="line"/><line x1="261" y1="33" x2="281" y2="33" class="line"/><path d="M151 33 Q161 33 161 43" class="line"/><path d="M271 43 Q271 33 281 33" class="line"/><line x1="161" y1="43" x2="161" y2="57" class="line"/><line x1="271" y1="57" x2="271" y2="43" class="line"/><path d="M161 57 Q161 67 171 67" class="line"/><path d="M261 67 Q271 67 271 57" class="line"/><line x1="171" y1="67" x2="181" y2="67" class="line"/><line x1="181" y1="67" x2="261" y2="67" class="line"/><a xlink:href="#ContentText" xlink:title="ContentText" shape="rect"><rect x="313" y="19" width="98" height="32"/><rect x="311" y="17" width="98" height="32" class="nonterminal"/><text class="nonterminal" x="321" y="37">ContentText</text></a><line x1="301" y1="33" x2="311" y2="33" class="line"/><line x1="409" y1="33" x2="419" y2="33" class="line"/><line x1="281" y1="33" x2="301" y2="33" class="line"/><line x1="419" y1="33" x2="439" y2="33" class="line"/><path d="M281 33 Q291 33 291 43" class="line"/><path d="M429 43 Q429 33 439 33" class="line"/><line x1="291" y1="43" x2="291" y2="57" class="line"/><line x1="429" y1="57" x2="429" y2="43" class="line"/><path d="M291 57 Q291 67 301 67" class="line"/><path d="M419 67 Q429 67 429 57" class="line"/><line x1="301" y1="67" x2="311" y2="67" class="line"/><line x1="311" y1="67" x2="419" y2="67" class="line"/><line x1="442" y1="33" x2="439" y2="33" class="line"/><polygon points="449 33 457 29 457 37"/><polygon points="449 33 441 29 441 37"/></svg>