<svg xmlns:xlink="http://www.w3.org/1999/xlink" xmlns="http://www.w3.org/2000/svg" width="314" height="68"><defs><style type="text/css" xml:space="preserve" xmlns:xml="http://www.w3.org/XML/1998/namespace">
    @namespace "http://www.w3.org/2000/svg";
    .line                 {fill: none; stroke: #262626;}
    .bold-line            {stroke: #0A0A0A; shape-rendering: crispEdges; stroke-width: 2; }
    .thin-line            {stroke: #0F0F0F; shape-rendering: crispEdges}
    .filled               {fill: #262626; stroke: none;}
    text.terminal         {font-family: Verdana, Sans-serif;
                            font-size: 12px;
                            fill: #0A0A0A;
                            font-weight: bold;
                          }
    text.nonterminal      {font-family: Verdana, Sans-serif;
                            font-size: 12px;
                            fill: #0D0D0D;
                          }
    text.regexp           {font-family: Verdana, Sans-serif;
                            font-size: 12px;
                            fill: #0F0F0F;
                          }
    rect, circle, polygon {fill: #262626; stroke: #262626;}
    rect.terminal         {fill: #FFFFFF; stroke: #262626;}
    rect.nonterminal      {fill: #FFFFFF; stroke: #262626;}
    rect.text             {fill: none; stroke: none;}    
    polygon.regexp        {fill: #FFFFFF; stroke: #262626;}
  </style></defs><polygon points="9 33 1 29 1 37"/><polygon points="17 33 9 29 9 37"/><line x1="17" y1="33" x2="19" y2="33" class="line"/><rect x="31" y="19" width="28" height="32" rx="10"/><rect x="29" y="17" width="28" height="32" class="terminal" rx="10"/><text class="terminal" x="39" y="37">{</text><line x1="19" y1="33" x2="29" y2="33" class="line"/><line x1="57" y1="33" x2="67" y2="33" class="line"/><polygon points="119 35 126 19 192 19 199 35 192 51 126 51"/><polygon points="117 33 124 17 190 17 197 33 190 49 124 49" class="regexp"/><text class="regexp" x="132" y="37">[^\r\n}]</text><line x1="107" y1="33" x2="117" y2="33" class="line"/><line x1="197" y1="33" x2="207" y2="33" class="line"/><path d="M87 33 L107 33 M106 33 Q97 33 97 23 L97 11 Q97 1 107 1" class="line"/><path d="M207 33 L227 33 M207 33 Q217 33 217 23 L217 11 Q217 1 207 1" class="line"/><line x1="107" y1="1" x2="117" y2="1" class="line"/><line x1="117" y1="1" x2="207" y2="1" class="line"/><line x1="67" y1="33" x2="87" y2="33" class="line"/><line x1="227" y1="33" x2="247" y2="33" class="line"/><path d="M67 33 Q77 33 77 43" class="line"/><path d="M237 43 Q237 33 247 33" class="line"/><line x1="77" y1="43" x2="77" y2="57" class="line"/><line x1="237" y1="57" x2="237" y2="43" class="line"/><path d="M77 57 Q77 67 87 67" class="line"/><path d="M227 67 Q237 67 237 57" class="line"/><line x1="87" y1="67" x2="97" y2="67" class="line"/><line x1="97" y1="67" x2="227" y2="67" class="line"/><rect x="259" y="19" width="28" height="32" rx="10"/><rect x="257" y="17" width="28" height="32" class="terminal" rx="10"/><text class="terminal" x="267" y="37">}</text><line x1="247" y1="33" x2="257" y2="33" class="line"/><line x1="285" y1="33" x2="295" y2="33" class="line"/><line x1="298" y1="33" x2="295" y2="33" class="line"/><polygon points="305 33 313 29 313 37"/><polygon points="305 33 297 29 297 37"/></svg>