<?xml version="1.0" encoding="UTF-8" standalone="no"?>
<svg
   xmlns:dc="http://purl.org/dc/elements/1.1/"
   xmlns:cc="http://creativecommons.org/ns#"
   xmlns:rdf="http://www.w3.org/1999/02/22-rdf-syntax-ns#"
   xmlns:svg="http://www.w3.org/2000/svg"
   xmlns="http://www.w3.org/2000/svg"
   xmlns:sodipodi="http://sodipodi.sourceforge.net/DTD/sodipodi-0.dtd"
   xmlns:inkscape="http://www.inkscape.org/namespaces/inkscape"
   width="344"
   height="80"
   id="svg6297"
   version="1.1"
   inkscape:version="0.48.2 r9819"
   sodipodi:docname="vvakame-Dlist.svg">
  <metadata
     id="metadata6391">
    <rdf:RDF>
      <cc:Work
         rdf:about="">
        <dc:format>image/svg+xml</dc:format>
        <dc:type
           rdf:resource="http://purl.org/dc/dcmitype/StillImage" />
      </cc:Work>
    </rdf:RDF>
  </metadata>
  <sodipodi:namedview
     pagecolor="#ffffff"
     bordercolor="#666666"
     borderopacity="1"
     objecttolerance="10"
     gridtolerance="10"
     guidetolerance="10"
     inkscape:pageopacity="0"
     inkscape:pageshadow="2"
     inkscape:window-width="640"
     inkscape:window-height="480"
     id="namedview6389"
     showgrid="false"
     inkscape:zoom="1.0232558"
     inkscape:cx="172"
     inkscape:cy="39.999999"
     inkscape:window-x="0"
     inkscape:window-y="0"
     inkscape:window-maximized="0"
     inkscape:current-layer="svg6297" />
  <defs
     id="defs6299">
    <style
       type="text/css"
       xml:space="preserve"
       id="style6301">
    @namespace &quot;http://www.w3.org/2000/svg&quot;;
    .line                 {fill: none; stroke: #262626;}
    .bold-line            {stroke: #0A0A0A; shape-rendering: crispEdges; stroke-width: 2; }
    .thin-line            {stroke: #0F0F0F; shape-rendering: crispEdges}
    .filled               {fill: #262626; stroke: none;}
    text.terminal         {font-family: Verdana, Sans-serif;
                            font-size: 12px;
                            fill: #0A0A0A;
                            font-weight: bold;
                          }
    text.nonterminal      {font-family: Verdana, Sans-serif;
                            font-size: 12px;
                            fill: #0D0D0D;
                          }
    text.regexp           {font-family: Verdana, Sans-serif;
                            font-size: 12px;
                            fill: #0F0F0F;
                          }
    rect, circle, polygon {fill: #262626; stroke: #262626;}
    rect.terminal         {fill: #FFFFFF; stroke: #262626;}
    rect.nonterminal      {fill: #FFFFFF; stroke: #262626;}
    rect.text             {fill: none; stroke: none;}    
    polygon.regexp        {fill: #FFFFFF; stroke: #262626;}
  </style>  </defs>
  <polygon
     points="9 17 1 13 1 21"
     id="polygon6303" />
  <polygon
     points="17 17 9 13 9 21"
     id="polygon6305" />
  <line
     x1="17"
     y1="17"
     x2="19"
     y2="17"
     class="line"
     id="line6307" />
  <rect
     style="fill:#262626;stroke:#262626"
     id="rect6311"
     height="32"
     width="98"
     y="3"
     x="51" />
  <rect
     style="fill:#ffffff;stroke:#262626"
     id="rect6313"
     class="nonterminal"
     height="32"
     width="98"
     y="1"
     x="49" />
  <text
     style="font-size:12px;font-weight:bold;fill:#0d0d0d;font-family:'Verdana, Sans-serif'"
     id="text6315"
     y="21"
     x="55"
     class="nonterminal">DlistElement</text>
  <line
     x1="39"
     y1="17"
     x2="49"
     y2="17"
     class="line"
     id="line6317" />
  <line
     x1="147"
     y1="17"
     x2="157"
     y2="17"
     class="line"
     id="line6319" />
  <line
     x1="157"
     y1="17"
     x2="199"
     y2="17"
     class="line"
     id="line6321" />
  <line
     x1="19"
     y1="17"
     x2="39"
     y2="17"
     class="line"
     id="line6323" />
  <line
     x1="199"
     y1="17"
     x2="219"
     y2="17"
     class="line"
     id="line6325" />
  <path
     d="M19 17 Q29 17 29 27"
     class="line"
     id="path6327" />
  <path
     d="M209 27 Q209 17 219 17"
     class="line"
     id="path6329" />
  <line
     x1="29"
     y1="27"
     x2="29"
     y2="51"
     class="line"
     id="line6331" />
  <line
     x1="209"
     y1="51"
     x2="209"
     y2="27"
     class="line"
     id="line6333" />
  <path
     d="M29 51 Q29 61 39 61"
     class="line"
     id="path6335" />
  <path
     d="M199 61 Q209 61 209 51"
     class="line"
     id="path6337" />
  <rect
     style="fill:#262626;stroke:#262626"
     id="rect6341"
     height="32"
     width="140"
     y="47"
     x="51" />
  <rect
     style="fill:#ffffff;stroke:#262626"
     id="rect6343"
     class="nonterminal"
     height="32"
     width="140"
     y="45"
     x="49" />
  <text
     style="font-size:12px;font-weight:bold;fill:#0d0d0d;font-family:'Verdana, Sans-serif'"
     id="text6345"
     y="65"
     x="53"
     class="nonterminal">SinglelineComment</text>
  <line
     x1="39"
     y1="61"
     x2="49"
     y2="61"
     class="line"
     id="line6347" />
  <line
     x1="189"
     y1="61"
     x2="199"
     y2="61"
     class="line"
     id="line6349" />
  <rect
     style="fill:#262626;stroke:#262626"
     id="rect6353"
     height="32"
     width="46"
     y="3"
     x="251" />
  <rect
     style="fill:#ffffff;stroke:#262626"
     id="rect6355"
     class="nonterminal"
     height="32"
     width="46"
     y="1"
     x="249" />
  <text
     style="font-size:12px;font-weight:bold;fill:#0d0d0d;font-family:'Verdana, Sans-serif'"
     id="text6357"
     y="21"
     x="257"
     class="nonterminal">Dlist</text>
  <line
     x1="239"
     y1="17"
     x2="249"
     y2="17"
     class="line"
     id="line6359" />
  <line
     x1="295"
     y1="17"
     x2="305"
     y2="17"
     class="line"
     id="line6361" />
  <line
     x1="219"
     y1="17"
     x2="239"
     y2="17"
     class="line"
     id="line6363" />
  <line
     x1="305"
     y1="17"
     x2="325"
     y2="17"
     class="line"
     id="line6365" />
  <path
     d="M219 17 Q229 17 229 27"
     class="line"
     id="path6367" />
  <path
     d="M315 27 Q315 17 325 17"
     class="line"
     id="path6369" />
  <line
     x1="229"
     y1="27"
     x2="229"
     y2="41"
     class="line"
     id="line6371" />
  <line
     x1="315"
     y1="41"
     x2="315"
     y2="27"
     class="line"
     id="line6373" />
  <path
     d="M229 41 Q229 51 239 51"
     class="line"
     id="path6375" />
  <path
     d="M305 51 Q315 51 315 41"
     class="line"
     id="path6377" />
  <line
     x1="239"
     y1="51"
     x2="249"
     y2="51"
     class="line"
     id="line6379" />
  <line
     x1="249"
     y1="51"
     x2="305"
     y2="51"
     class="line"
     id="line6381" />
  <line
     x1="328"
     y1="17"
     x2="325"
     y2="17"
     class="line"
     id="line6383" />
  <polygon
     points="335 17 343 13 343 21"
     id="polygon6385" />
  <polygon
     points="335 17 327 13 327 21"
     id="polygon6387" />
</svg>
